<svg width="40" height="40" viewBox="0 0 40 40" fill="#c6dfeb" xmlns="http://www.w3.org/2000/svg">
<path fill-rule="evenodd" clip-rule="evenodd" d="M12.3956 5.06667C13.1981 4.38717 14.3617 4 15.6 4C16.8382 4 18.0019 4.38717 18.8043 5.06667H19.8666C21.0448 5.06667 22 6.02179 22 7.2V7.20558L23.088 7.20672C24.2662 7.20796 25.2203 8.16409 25.219 9.34229L25.2191 16.8H23.0667L23.0666 9.34003L21.7115 9.33861C21.3419 9.97335 20.6541 10.4 19.8666 10.4H11.3333C10.5437 10.4 9.85424 9.97099 9.48538 9.33334H8.13333V25.3333H14.5333V27.4667H8.13333C6.95513 27.4667 6 26.5115 6 25.3333V9.33334C6 8.15513 6.95513 7.20001 8.13333 7.20001H9.19997V7.2C9.19997 6.02179 10.1551 5.06667 11.3333 5.06667H12.3956ZM11.3334 20V17.8667H17.7334V20H11.3334ZM11.3334 13.6V15.7333H19.8667V13.6H11.3334ZM13.3148 7.2L13.6338 6.8324C13.9842 6.42852 14.7354 6.13333 15.6 6.13333C16.4646 6.13333 17.2158 6.42852 17.5663 6.8324L17.8852 7.2H19.8667V8.26667H11.3334V7.2H12.8281H13.3148Z"/>
<path fill-rule="evenodd" clip-rule="evenodd" d="M31.837 24.0533H28.6133V20.8296C28.6133 19.7823 27.9187 18.9333 27.0618 18.9333H23.3381C22.4813 18.9333 21.7866 19.7823 21.7866 20.8296V24.0533H18.5629C17.5156 24.0533 16.6666 24.748 16.6666 25.6048V29.3285C16.6666 30.1853 17.5156 30.88 18.5629 30.88H21.7866V34.1037C21.7866 35.151 22.4813 36 23.3381 36H27.0618C27.9187 36 28.6133 35.151 28.6133 34.1037V30.88H31.837C32.8843 30.88 33.7333 30.1853 33.7333 29.3285V25.6048C33.7333 24.748 32.8843 24.0533 31.837 24.0533ZM31.6 25.8667H26.8V21.0667H23.6V25.8667H18.8V29.0667H23.6V33.8667H26.8V29.0667H31.6V25.8667Z"/>
</svg>
