<svg width="16" height="16" viewBox="0 0 16 16" fill="none" xmlns="http://www.w3.org/2000/svg">
<path fill-rule="evenodd" clip-rule="evenodd" d="M10.9579 1.33301C11.3944 1.33301 11.8128 1.50729 12.1184 1.81529L14.1857 3.88256C14.4935 4.19034 14.6664 4.60779 14.6664 5.04306C14.6664 5.47833 14.4935 5.89578 14.1857 6.20357L6.63801 13.7488C6.17236 14.286 5.51227 14.616 4.75607 14.6679H1.33301V14.0012L1.33517 11.1912C1.39197 10.4882 1.71879 9.83456 2.21734 9.39529L9.7966 1.81609C10.1039 1.50689 10.5219 1.33301 10.9579 1.33301ZM4.709 13.3362C5.06515 13.311 5.39667 13.1453 5.66287 12.8408L10.7041 7.79949L8.20122 5.29647L3.13041 10.3661C2.86031 10.605 2.69321 10.9392 2.66634 11.2449V13.335L4.709 13.3362ZM9.14415 4.35378L11.647 6.85668L13.2429 5.26076C13.3006 5.20302 13.333 5.12471 13.333 5.04306C13.333 4.96141 13.3006 4.8831 13.2429 4.82537L11.1738 2.75625C11.1167 2.69871 11.039 2.66634 10.9579 2.66634C10.8769 2.66634 10.7991 2.69871 10.7421 2.75625L9.14415 4.35378Z" fill="#608EB6"/>
</svg>
