<svg width="70" height="68" viewBox="0 0 70 68" fill="none"
  xmlns="http://www.w3.org/2000/svg">
  <g clip-path="url(#clip0_567_5829)">
    <path d="M44.3936 15.2928H25.6224C25.1946 15.2933 24.7845 15.4635 24.4821 15.766C24.1796 16.0684 24.0094 16.4785 24.0089 16.9063V58.6255L23.7938 58.6911L19.1889 60.1013C18.9707 60.1678 18.7349 60.1451 18.5335 60.038C18.332 59.9309 18.1813 59.7482 18.1144 59.5301L4.41694 14.7883C4.35028 14.5701 4.373 14.3343 4.48011 14.1328C4.58721 13.9313 4.76993 13.7806 4.98812 13.7137L12.0842 11.5409L32.6561 5.24404L39.7522 3.07122C39.8602 3.03799 39.9736 3.02637 40.0861 3.03705C40.1986 3.04772 40.3079 3.08047 40.4077 3.13342C40.5075 3.18637 40.5959 3.25849 40.6678 3.34564C40.7397 3.43279 40.7937 3.53327 40.8268 3.64132L44.328 15.0777L44.3936 15.2928Z" fill="#F2F2F2"/>
    <path d="M48.4902 15.0789L44.2704 1.2955C44.2002 1.06584 44.0855 0.85227 43.9327 0.666986C43.7799 0.481702 43.5921 0.328339 43.38 0.21566C43.168 0.102981 42.9358 0.033193 42.6967 0.0102871C42.4577 -0.0126188 42.2164 0.0118061 41.9868 0.0821636L32.0101 3.13594L11.4394 9.4339L1.46268 12.4888C0.999217 12.6311 0.611152 12.9515 0.383667 13.3796C0.156181 13.8077 0.10786 14.3086 0.249312 14.7724L14.6717 61.8785C14.7866 62.2528 15.0185 62.5805 15.3332 62.8133C15.648 63.0462 16.0292 63.1721 16.4207 63.1725C16.602 63.1726 16.7822 63.1454 16.9553 63.0918L23.7943 60.9986L24.0094 60.9319V60.7071L23.7943 60.7727L16.8919 62.8864C16.4828 63.0111 16.0409 62.9684 15.6632 62.7678C15.2855 62.5671 15.0028 62.2249 14.8772 61.8161L0.455881 14.7089C0.393611 14.5064 0.371908 14.2935 0.392014 14.0825C0.412121 13.8716 0.473641 13.6667 0.573055 13.4795C0.672469 13.2924 0.807824 13.1267 0.971367 12.9919C1.13491 12.8572 1.32343 12.756 1.52613 12.6942L11.5028 9.63935L32.0736 3.34247L42.0503 0.287616C42.2041 0.240695 42.3639 0.216772 42.5247 0.216622C42.8696 0.217397 43.2053 0.328615 43.4825 0.533985C43.7597 0.739356 43.9638 1.02809 44.065 1.35789L48.2654 15.0789L48.3321 15.2941H48.5559L48.4902 15.0789Z" fill="#26187B"/>
    <path d="M13.3647 13.7496C13.1574 13.7494 12.9556 13.6828 12.7889 13.5596C12.6221 13.4363 12.4993 13.2629 12.4384 13.0647L11.0529 8.53927C11.0157 8.41771 11.0028 8.29 11.0149 8.16345C11.027 8.03689 11.064 7.91397 11.1236 7.80169C11.1833 7.68942 11.2645 7.58999 11.3625 7.50909C11.4606 7.42819 11.5737 7.36741 11.6952 7.33021L30.6202 1.53633C30.8657 1.46142 31.1309 1.48697 31.3576 1.60738C31.5842 1.72778 31.7539 1.93321 31.8293 2.17857L33.2148 6.70409C33.2896 6.9496 33.2641 7.21478 33.1437 7.44145C33.0233 7.66812 32.8179 7.83778 32.5725 7.91321L13.6475 13.7071C13.5559 13.7352 13.4606 13.7495 13.3647 13.7496Z" fill="#FF9500"/>
    <path d="M20.6225 4.83582C21.8106 4.83582 22.7738 3.87264 22.7738 2.68451C22.7738 1.49638 21.8106 0.533203 20.6225 0.533203C19.4344 0.533203 18.4712 1.49638 18.4712 2.68451C18.4712 3.87264 19.4344 4.83582 20.6225 4.83582Z" fill="#FF9500"/>
    <path d="M20.6223 4.04681C21.3746 4.04681 21.9846 3.4369 21.9846 2.68454C21.9846 1.93218 21.3746 1.32227 20.6223 1.32227C19.8699 1.32227 19.26 1.93218 19.26 2.68454C19.26 3.4369 19.8699 4.04681 20.6223 4.04681Z" fill="white"/>
    <path d="M64.9914 62.6211H28.6343C28.3919 62.6208 28.1595 62.5244 27.9881 62.353C27.8167 62.1816 27.7202 61.9492 27.72 61.7068V18.1428C27.7202 17.9004 27.8167 17.668 27.9881 17.4966C28.1595 17.3252 28.3919 17.2288 28.6343 17.2285H64.9914C65.2338 17.2288 65.4662 17.3252 65.6376 17.4966C65.809 17.668 65.9054 17.9004 65.9057 18.1428V61.7068C65.9054 61.9492 65.809 62.1816 65.6376 62.353C65.4662 62.5244 65.2338 62.6208 64.9914 62.6211Z" fill="#E6E6E6"/>
    <path d="M48.2648 15.0781H25.6223C25.1375 15.0788 24.6728 15.2717 24.33 15.6145C23.9873 15.9573 23.7944 16.422 23.7937 16.9067V60.7719L24.0088 60.7063V16.9067C24.0094 16.479 24.1795 16.0689 24.482 15.7664C24.7845 15.4639 25.1946 15.2938 25.6223 15.2933H48.3315L48.2648 15.0781ZM68.0031 15.0781H25.6223C25.1375 15.0788 24.6728 15.2717 24.33 15.6145C23.9873 15.9573 23.7944 16.422 23.7937 16.9067V66.1717C23.7944 66.6564 23.9873 67.1212 24.33 67.4639C24.6728 67.8067 25.1375 67.9996 25.6223 68.0003H68.0031C68.4878 67.9996 68.9526 67.8067 69.2953 67.4639C69.6381 67.1212 69.831 66.6564 69.8317 66.1717V16.9067C69.831 16.422 69.6381 15.9573 69.2953 15.6145C68.9526 15.2717 68.4878 15.0788 68.0031 15.0781ZM69.6166 66.1717C69.616 66.5994 69.4459 67.0095 69.1434 67.312C68.8409 67.6145 68.4308 67.7846 68.0031 67.7852H25.6223C25.1946 67.7846 24.7845 67.6145 24.482 67.312C24.1795 67.0095 24.0094 66.5994 24.0088 66.1717V16.9067C24.0094 16.479 24.1795 16.0689 24.482 15.7664C24.7845 15.4639 25.1946 15.2938 25.6223 15.2933H68.0031C68.4308 15.2938 68.8409 15.4639 69.1434 15.7664C69.4459 16.0689 69.616 16.479 69.6166 16.9067V66.1717Z" fill="#26187B"/>
    <path d="M56.7088 19.8116H36.9168C36.6602 19.8113 36.4141 19.7093 36.2326 19.5278C36.0511 19.3463 35.949 19.1002 35.9487 18.8435V14.1107C35.949 13.854 36.0511 13.6079 36.2326 13.4264C36.4141 13.245 36.6602 13.1429 36.9168 13.1426H56.7088C56.9655 13.1429 57.2116 13.245 57.3931 13.4264C57.5746 13.6079 57.6766 13.854 57.6769 14.1107V18.8435C57.6766 19.1002 57.5746 19.3463 57.3931 19.5278C57.2116 19.7093 56.9655 19.8113 56.7088 19.8116Z" fill="#FF9500"/>
    <path d="M46.8127 13.4647C48.0008 13.4647 48.964 12.5016 48.964 11.3134C48.964 10.1253 48.0008 9.16211 46.8127 9.16211C45.6245 9.16211 44.6614 10.1253 44.6614 11.3134C44.6614 12.5016 45.6245 13.4647 46.8127 13.4647Z" fill="#FF9500"/>
    <path d="M46.8128 12.6226C47.5365 12.6226 48.1231 12.036 48.1231 11.3123C48.1231 10.5886 47.5365 10.002 46.8128 10.002C46.0891 10.002 45.5024 10.5886 45.5024 11.3123C45.5024 12.036 46.0891 12.6226 46.8128 12.6226Z" fill="white"/>
  </g>
  <defs>
    <clipPath id="clip0_567_5829">
      <rect width="69.6632" height="68" fill="white" transform="translate(0.168457)"/>
    </clipPath>
  </defs>
</svg>
