<svg width="90" height="68" viewBox="0 0 90 68" fill="none"
  xmlns="http://www.w3.org/2000/svg">
  <g clip-path="url(#clip0_577_3136)">
    <path opacity="0.1" d="M41.3027 60.0448C61.6143 60.0448 78.0801 58.7663 78.0801 57.1891C78.0801 55.612 61.6143 54.3335 41.3027 54.3335C20.9912 54.3335 4.52539 55.612 4.52539 57.1891C4.52539 58.7663 20.9912 60.0448 41.3027 60.0448Z" fill="#FF9500"/>
    <g opacity="0.1">
      <path d="M73.8757 40.9172C73.6559 40.2501 72.7646 39.9429 71.8854 40.2319C71.7587 40.2732 71.6362 40.3262 71.5194 40.3902C71.4631 40.3747 71.4051 40.3608 71.3463 40.3504C71.3943 40.1585 71.4127 39.9604 71.4008 39.7629C71.7041 39.56 71.9501 39.2825 72.1153 38.9572C72.2805 38.6319 72.3592 38.2695 72.344 37.905C72.6465 37.7015 72.8917 37.4238 73.0562 37.0986C73.2208 36.7733 73.2991 36.4113 73.2838 36.0471C73.5886 35.8462 73.8344 35.5678 73.996 35.2405C74.42 34.4012 74.2444 33.4579 73.6031 33.1334C72.9619 32.8089 72.0974 33.2269 71.6734 34.0663C71.5053 34.3902 71.4267 34.7532 71.4458 35.1177C71.1434 35.3211 70.8982 35.5988 70.7336 35.9241C70.5691 36.2493 70.4907 36.6114 70.506 36.9756C70.2036 37.179 69.9584 37.4567 69.7939 37.782C69.6293 38.1072 69.551 38.4693 69.5663 38.8335C69.2631 39.0367 69.0172 39.3143 68.8521 39.6397C68.6869 39.9652 68.608 40.3276 68.623 40.6922C68.3183 40.8931 68.0725 41.1715 67.9109 41.4988C67.8312 41.6565 67.7707 41.8233 67.7309 41.9955C67.6246 41.8401 67.495 41.702 67.3467 41.5862C67.3297 41.454 67.3007 41.3237 67.2601 41.1967C66.9711 40.3167 66.1957 39.7802 65.5294 40C64.8631 40.2198 64.555 41.1102 64.8441 41.9903C64.9624 42.3676 65.1901 42.7013 65.4983 42.9491C65.5152 43.0812 65.5442 43.2116 65.5848 43.3385C65.7527 43.849 66.0841 44.2436 66.4631 44.4418C66.4296 44.552 66.4055 44.6649 66.3913 44.7793C66.0339 45.123 65.8039 45.5779 65.7388 46.0695C65.3812 46.4134 65.1511 46.8687 65.0864 47.3606C64.9093 47.5307 64.7629 47.73 64.6537 47.9499C64.2288 48.7893 64.4045 49.7334 65.0457 50.0571C65.6869 50.3807 66.5514 49.9645 66.9763 49.1242C67.0883 48.9051 67.1615 48.6682 67.1926 48.4241C67.55 48.0804 67.7801 47.6255 67.8451 47.1339C68.2028 46.79 68.4329 46.3347 68.4976 45.8428C68.8525 45.4983 69.0799 45.0433 69.1423 44.5526C69.5012 44.2087 69.7321 43.7526 69.7965 43.2597C69.9065 43.1554 70.0049 43.0393 70.0898 42.9136C70.4434 42.9862 70.8099 42.9632 71.1516 42.847C71.2783 42.8057 71.4008 42.7527 71.5176 42.6886C71.9004 42.7895 72.3044 42.7751 72.6789 42.6471C73.5555 42.3606 74.0947 41.5853 73.8757 40.9172Z" fill="#3F3D56"/>
      <g opacity="0.1">
        <path d="M72.3244 38.2866C72.2336 38.3759 72.1338 38.4557 72.0267 38.5246C72.0403 38.7716 72.0077 39.019 71.9307 39.2541C71.9988 39.1599 72.0595 39.0607 72.1124 38.9573C72.2197 38.747 72.2913 38.5204 72.3244 38.2866Z" fill="black"/>
        <path d="M73.2639 36.4287C73.173 36.518 73.0733 36.5978 72.9662 36.6667C72.9798 36.9137 72.9472 37.1611 72.8701 37.3962C72.9384 37.3019 72.9992 37.2023 73.0518 37.0985C73.1587 36.8884 73.2304 36.6621 73.2639 36.4287Z" fill="black"/>
        <path d="M71.133 35.7371C71.125 35.6097 71.13 35.4819 71.1477 35.3555C70.9797 35.5211 70.8399 35.7131 70.7341 35.924C70.6818 36.028 70.6378 36.1359 70.6025 36.2468C70.7458 36.0451 70.9257 35.8721 71.133 35.7371Z" fill="black"/>
        <path d="M65.168 46.9804C65.2436 46.875 65.3291 46.7771 65.4232 46.6879C65.438 46.5705 65.4632 46.4547 65.4985 46.3418C65.4233 46.4429 65.357 46.5503 65.3004 46.6628C65.2481 46.7651 65.2038 46.8713 65.168 46.9804Z" fill="black"/>
        <path d="M65.8203 45.691C65.8959 45.5856 65.9814 45.4877 66.0756 45.3985C66.0897 45.2842 66.1138 45.1712 66.1474 45.061C66.0756 45.1592 66.0119 45.2631 65.957 45.3717C65.9035 45.4746 65.8578 45.5813 65.8203 45.691Z" fill="black"/>
        <path d="M71.3836 40.1445C71.2933 40.2337 71.1938 40.3132 71.0867 40.3816C71.0986 40.5791 71.0802 40.7772 71.0322 40.9692C71.0906 40.9792 71.1484 40.9925 71.2053 41.009C71.3221 40.9449 71.4447 40.8919 71.5713 40.8506C72.4523 40.5616 73.3427 40.8688 73.5616 41.536C73.616 41.7036 73.6255 41.8826 73.5893 42.0552C73.8792 41.7142 73.9995 41.2988 73.8749 40.9181C73.6551 40.2509 72.7638 39.9437 71.8846 40.2327C71.7579 40.274 71.6354 40.327 71.5186 40.3911C71.4623 40.3755 71.4043 40.3617 71.3455 40.3513C71.3619 40.2821 71.374 40.2137 71.3836 40.1445Z" fill="black"/>
        <path d="M64.8461 47.6289C64.7708 47.73 64.7045 47.8374 64.6479 47.95C64.5953 48.0543 64.5508 48.1625 64.5146 48.2736C64.5919 48.1677 64.6788 48.0692 64.7743 47.9794C64.7876 47.8606 64.8116 47.7433 64.8461 47.6289Z" fill="black"/>
        <path d="M70.1887 37.595C70.1808 37.4676 70.1857 37.3398 70.2034 37.2134C70.0353 37.379 69.8956 37.5711 69.7897 37.7819C69.7375 37.8859 69.6935 37.9938 69.6582 38.1047C69.8014 37.903 69.9814 37.7301 70.1887 37.595Z" fill="black"/>
        <path d="M68.8307 45.172C68.8136 45.3008 68.7846 45.4277 68.7441 45.551C68.8118 45.4565 68.8723 45.357 68.925 45.2534C68.9817 45.1422 69.0289 45.0264 69.066 44.9072C68.9952 45.002 68.9165 45.0906 68.8307 45.172Z" fill="black"/>
        <path d="M67.526 47.7526C67.509 47.8813 67.48 48.0082 67.4395 48.1316C67.5077 48.0373 67.5685 47.9378 67.6212 47.8339C67.6775 47.7226 67.7247 47.6068 67.7622 47.4878C67.6913 47.5828 67.6123 47.6714 67.526 47.7526Z" fill="black"/>
        <path d="M68.1783 46.4613C68.1613 46.59 68.1324 46.7169 68.0918 46.8403C68.1608 46.7476 68.2227 46.6498 68.277 46.5478C68.3337 46.4366 68.3809 46.3208 68.418 46.2017C68.3456 46.2948 68.2654 46.3816 68.1783 46.4613Z" fill="black"/>
        <path d="M69.483 43.8817C69.466 44.0102 69.4371 44.1368 69.3965 44.2599C69.4644 44.1657 69.5248 44.0665 69.5773 43.963C69.6347 43.8499 69.6822 43.7321 69.7193 43.6108C69.6488 43.708 69.5697 43.7986 69.483 43.8817Z" fill="black"/>
        <path d="M65.2112 40.6187C65.8793 40.3998 66.6546 40.9354 66.9419 41.8155C66.9824 41.9427 67.0114 42.0733 67.0284 42.2058C67.1768 42.3217 67.3064 42.4597 67.4127 42.6151C67.4525 42.4426 67.5129 42.2755 67.5927 42.1175C67.6229 42.0587 67.6558 42.0024 67.6896 41.9444C67.5914 41.8085 67.4749 41.6868 67.3434 41.5827C67.3265 41.4505 67.2975 41.3202 67.2569 41.1933C66.9679 40.3132 66.1925 39.7767 65.5262 39.9965C65.1455 40.1211 64.8824 40.4647 64.7803 40.8991C64.8974 40.7701 65.0458 40.6735 65.2112 40.6187Z" fill="black"/>
        <path d="M68.3088 41.3109C68.3011 41.1838 68.3064 41.0562 68.3244 40.9302C68.1558 41.0955 68.0157 41.2876 67.9099 41.4987C67.8575 41.6023 67.8135 41.71 67.7783 41.8206C67.9219 41.6192 68.1018 41.4464 68.3088 41.3109Z" fill="black"/>
        <path d="M69.2492 39.452C69.2416 39.3249 69.2468 39.1974 69.2648 39.0713C69.096 39.2362 68.9559 39.428 68.8503 39.639C68.798 39.7429 68.7541 39.8509 68.7188 39.9617C68.862 39.76 69.0419 39.5871 69.2492 39.452Z" fill="black"/>
        <path d="M66.8736 49.0427C66.8566 49.1717 66.8277 49.2989 66.7871 49.4226C66.9293 49.2256 67.0384 49.0066 67.1099 48.7744C67.0391 48.8706 66.9601 48.9603 66.8736 49.0427Z" fill="black"/>
      </g>
      <path d="M75.1588 32.3311C75.4638 32.1305 75.7097 31.8521 75.871 31.5246C76.2959 30.6852 76.1202 29.7411 75.479 29.4166C74.8378 29.0921 73.9733 29.5101 73.5484 30.3503C73.3801 30.6751 73.3018 31.0391 73.3217 31.4043C73.0192 31.6078 72.774 31.8854 72.6095 32.2107C72.445 32.536 72.3666 32.898 72.3819 33.2622C72.0767 33.4626 71.8308 33.7411 71.6697 34.0687C71.6176 34.1715 71.5739 34.2783 71.5391 34.388C71.765 34.0609 72.0926 33.8175 72.471 33.6958C72.5141 33.8291 72.5832 33.9525 72.6743 34.0589C72.7654 34.1653 72.8767 34.2526 73.0018 34.3157C73.1269 34.3788 73.2632 34.4164 73.4029 34.4265C73.5427 34.4365 73.683 34.4188 73.8158 34.3742C73.9436 34.7505 73.9436 35.1584 73.8158 35.5346C73.8834 35.4414 73.9436 35.343 73.9958 35.2404C74.1636 34.9164 74.2419 34.5534 74.2225 34.189C74.5253 33.9859 74.7708 33.7083 74.9354 33.383C75.0999 33.0576 75.1781 32.6954 75.1623 32.3311H75.1588Z" fill="#3F3D56"/>
      <path d="M85.4873 20.4207C85.7482 20.299 86.0003 20.1593 86.2419 20.0027L83.4442 17.9588L86.7325 19.6523C87.3978 19.1238 87.9481 18.4651 88.3499 17.7165C88.7516 16.9679 88.9963 16.1452 89.069 15.2987L83.4805 15.3558L89.0811 14.4195C89.0232 13.5722 88.7927 12.7456 88.4037 11.9907C88.0147 11.2357 87.4755 10.5682 86.8191 10.0292C86.1628 9.49024 85.4032 9.09114 84.5869 8.85642C83.7707 8.62171 82.9152 8.55635 82.0728 8.66435C81.2304 8.77236 80.4189 9.05144 79.6883 9.48447C78.9577 9.9175 78.3234 10.4953 77.8242 11.1825C77.3251 11.8696 76.9717 12.6515 76.7857 13.4802C76.5998 14.3089 76.5852 15.1668 76.7429 16.0013C76.3367 16.1902 75.952 16.4223 75.5955 16.6936L78.516 20.7547L75.0096 17.1999C74.2696 17.9265 73.7225 18.8262 73.4177 19.8175C73.113 20.8089 73.0602 21.8606 73.2642 22.8774C72.205 23.3718 71.3062 24.1542 70.6706 25.1353C70.035 26.1163 69.6881 27.2563 69.6697 28.4251C69.6513 29.5939 69.9621 30.7443 70.5665 31.7449C71.171 32.7454 72.0447 33.5557 73.0878 34.0832C74.131 34.6107 75.3015 34.8342 76.4656 34.7279C77.6297 34.6217 78.7404 34.1902 79.6709 33.4826C80.6013 32.775 81.314 31.82 81.7274 30.7266C82.1408 29.6332 82.2382 28.4455 82.0086 27.2993C83.2761 26.7094 84.3084 25.7102 84.9394 24.4625C85.5703 23.2149 85.7633 21.7913 85.4873 20.4207Z" fill="#FF9500"/>
      <path opacity="0.1" d="M73.8157 18.8354C73.1826 20.0824 72.989 21.5066 73.2662 22.8774C72.207 23.3718 71.3082 24.1542 70.6725 25.1353C70.0369 26.1163 69.6901 27.2563 69.6717 28.4251C69.6533 29.5939 69.964 30.7443 70.5685 31.7449C71.1729 32.7454 72.0466 33.5557 73.0898 34.0832C74.1329 34.6107 75.3034 34.8342 76.4675 34.728C77.6316 34.6217 78.7424 34.1902 79.6728 33.4826C80.6033 32.775 81.3159 31.82 81.7293 30.7266C82.1427 29.6332 82.2402 28.4455 82.0105 27.2994C83.2333 26.7317 74.1289 18.2115 73.8157 18.8354Z" fill="black"/>
      <path d="M80.8372 9.81398C81.3481 9.81398 81.7622 9.39982 81.7622 8.88893C81.7622 8.37803 81.3481 7.96387 80.8372 7.96387C80.3263 7.96387 79.9121 8.37803 79.9121 8.88893C79.9121 9.39982 80.3263 9.81398 80.8372 9.81398Z" fill="#FF9500"/>
      <path d="M86.2405 10.4077C86.7514 10.4077 87.1655 9.99357 87.1655 9.48268C87.1655 8.97178 86.7514 8.55762 86.2405 8.55762C85.7296 8.55762 85.3154 8.97178 85.3154 9.48268C85.3154 9.99357 85.7296 10.4077 86.2405 10.4077Z" fill="#FF9500"/>
      <path d="M88.3245 18.7202C88.8354 18.7202 89.2495 18.3061 89.2495 17.7952C89.2495 17.2843 88.8354 16.8701 88.3245 16.8701C87.8136 16.8701 87.3994 17.2843 87.3994 17.7952C87.3994 18.3061 87.8136 18.7202 88.3245 18.7202Z" fill="#FF9500"/>
      <path d="M85.512 22.8711C86.0229 22.8711 86.437 22.457 86.437 21.9461C86.437 21.4352 86.0229 21.021 85.512 21.021C85.0011 21.021 84.5869 21.4352 84.5869 21.9461C84.5869 22.457 85.0011 22.8711 85.512 22.8711Z" fill="#FF9500"/>
      <path d="M81.6692 31.4927C82.1801 31.4927 82.5943 31.0785 82.5943 30.5676C82.5943 30.0567 82.1801 29.6426 81.6692 29.6426C81.1583 29.6426 80.7441 30.0567 80.7441 30.5676C80.7441 31.0785 81.1583 31.4927 81.6692 31.4927Z" fill="#FF9500"/>
      <path opacity="0.1" d="M81.6692 31.4927C82.1801 31.4927 82.5943 31.0785 82.5943 30.5676C82.5943 30.0567 82.1801 29.6426 81.6692 29.6426C81.1583 29.6426 80.7441 30.0567 80.7441 30.5676C80.7441 31.0785 81.1583 31.4927 81.6692 31.4927Z" fill="black"/>
      <path d="M73.1272 21.728C73.6381 21.728 74.0523 21.3139 74.0523 20.803C74.0523 20.2921 73.6381 19.8779 73.1272 19.8779C72.6163 19.8779 72.2021 20.2921 72.2021 20.803C72.2021 21.3139 72.6163 21.728 73.1272 21.728Z" fill="#FF9500"/>
      <path opacity="0.1" d="M73.1272 21.728C73.6381 21.728 74.0523 21.3139 74.0523 20.803C74.0523 20.2921 73.6381 19.8779 73.1272 19.8779C72.6163 19.8779 72.2021 20.2921 72.2021 20.803C72.2021 21.3139 72.6163 21.728 73.1272 21.728Z" fill="black"/>
      <path opacity="0.1" d="M72.1406 36.0185C71.5254 35.7079 71.3393 34.8278 71.6984 34.0161C71.6794 34.049 71.6612 34.0827 71.6439 34.1182C71.219 34.9576 71.3947 35.9008 72.0359 36.2253C72.6772 36.5499 73.5416 36.1319 73.9657 35.2925C73.9838 35.2579 73.9994 35.2224 74.015 35.1878C73.5745 35.9588 72.755 36.3301 72.1406 36.0185Z" fill="black"/>
      <path opacity="0.1" d="M71.2266 37.8256C70.6122 37.5149 70.4253 36.6348 70.7852 35.8223C70.7662 35.856 70.7472 35.8898 70.7299 35.9244C70.305 36.7638 70.4806 37.7079 71.1219 38.0315C71.7631 38.3551 72.6276 37.9389 73.0525 37.0987C73.0698 37.064 73.0862 37.0294 73.1018 36.9939C72.6605 37.765 71.8418 38.1362 71.2266 37.8256Z" fill="black"/>
      <path opacity="0.1" d="M70.3122 39.6313C69.6978 39.3207 69.5109 38.4406 69.8709 37.6289C69.8519 37.6618 69.8328 37.6955 69.8155 37.731C69.3906 38.5704 69.5672 39.5136 70.2084 39.8381C70.8496 40.1627 71.7132 39.7447 72.1381 38.9053C72.1554 38.8707 72.1719 38.8352 72.1875 38.8006C71.747 39.5716 70.9275 39.9429 70.3122 39.6313Z" fill="black"/>
      <path opacity="0.1" d="M69.4026 41.4424C68.7873 41.1317 68.6013 40.2516 68.9604 39.4399C68.9413 39.4728 68.9232 39.5066 68.905 39.5412C68.481 40.3806 68.6566 41.3247 69.2979 41.6492C69.9391 41.9737 70.8036 41.5557 71.2276 40.7155C71.2458 40.6809 71.2613 40.6462 71.2769 40.6108C70.8339 41.3775 70.0144 41.7487 69.4026 41.4424Z" fill="black"/>
      <path opacity="0.1" d="M68.4863 43.2441C67.8711 42.9335 67.685 42.0534 68.0441 41.2417C68.0251 41.2746 68.0069 41.3083 67.9896 41.3438C67.5647 42.1832 67.7404 43.1264 68.3816 43.4509C69.0229 43.7754 69.8873 43.3575 70.3122 42.5181C70.3295 42.4835 70.346 42.448 70.3616 42.4134C69.922 43.1844 69.1007 43.5556 68.4863 43.2441Z" fill="black"/>
      <path opacity="0.1" d="M67.5722 45.0512C66.9578 44.7406 66.7709 43.8605 67.1309 43.0488C67.1119 43.0817 67.0928 43.1155 67.0755 43.1501C66.6506 43.9895 66.8263 44.9336 67.4684 45.2581C68.1105 45.5826 68.9698 45.1637 69.4024 44.3244C69.4198 44.2897 69.4362 44.2551 69.4518 44.2196C69.0061 44.9907 68.191 45.3619 67.5722 45.0512Z" fill="black"/>
      <path opacity="0.1" d="M66.6585 46.8569C66.0441 46.5463 65.8572 45.6662 66.2172 44.8545C66.1982 44.8882 66.18 44.9211 66.1618 44.9566C65.7378 45.796 65.9135 46.7392 66.5547 47.0637C67.1959 47.3882 68.0604 46.9703 68.4844 46.1309C68.5026 46.0963 68.5182 46.0608 68.5338 46.0262C68.0933 46.7972 67.2738 47.1684 66.6585 46.8569Z" fill="black"/>
      <path opacity="0.1" d="M65.7451 48.664C65.1299 48.3534 64.9438 47.4733 65.3029 46.6616C65.2839 46.6945 65.2657 46.7283 65.2484 46.7629C64.8235 47.6023 64.9992 48.5464 65.6404 48.8709C66.2816 49.1954 67.1461 48.7774 67.571 47.9371C67.5883 47.9025 67.6039 47.8679 67.6195 47.8324C67.179 48.6035 66.3595 48.9712 65.7451 48.664Z" fill="black"/>
      <path opacity="0.1" d="M65.1445 49.8509C64.5301 49.5394 64.3432 48.6602 64.7032 47.8477C64.6842 47.8814 64.6651 47.9152 64.6478 47.9498C64.2229 48.7892 64.3986 49.7332 65.0398 50.0569C65.6811 50.3805 66.5455 49.9643 66.9704 49.124C66.9877 49.0894 67.0042 49.0548 67.0198 49.0193C66.5784 49.7904 65.7589 50.1616 65.1445 49.8509Z" fill="black"/>
      <path d="M81.6545 41.811C81.7498 41.5376 81.808 41.2527 81.8276 40.9638C81.8911 40.9637 81.954 40.9504 82.0122 40.9249C82.0704 40.8994 82.1227 40.8621 82.1658 40.8154C82.209 40.7687 82.2421 40.7137 82.263 40.6537C82.2839 40.5936 82.2921 40.5299 82.2873 40.4666C82.2825 40.4032 82.2646 40.3415 82.2349 40.2853C82.2051 40.2292 82.1641 40.1798 82.1144 40.1402C82.0646 40.1006 82.0073 40.0717 81.9459 40.0553C81.8845 40.0389 81.8203 40.0353 81.7575 40.0448C81.6546 39.5764 81.4487 39.1369 81.1548 38.758C80.8608 38.3792 80.4861 38.0706 80.0579 37.8546C80.1133 37.7451 80.1228 37.6182 80.0845 37.5017C80.0462 37.3851 79.9632 37.2886 79.8537 37.2333C79.7442 37.178 79.6173 37.1684 79.5008 37.2067C79.3842 37.245 79.2877 37.328 79.2324 37.4375C79.2124 37.4764 79.1984 37.5181 79.1909 37.5613C78.6831 37.4667 78.1602 37.4947 77.6654 37.6429C77.1707 37.7912 76.7185 38.0554 76.3465 38.4136C76.0655 38.3682 75.7798 38.3597 75.4967 38.3885L75.122 40.0941L75.0995 38.45C74.6694 38.5442 74.2631 38.7252 73.9054 38.9818C73.5476 39.2385 73.246 39.5654 73.0188 39.9425C72.7917 40.3197 72.6439 40.7392 72.5844 41.1754C72.5249 41.6117 72.555 42.0555 72.6728 42.4797C72.7907 42.9039 72.9938 43.2996 73.2697 43.6427C73.5457 43.9857 73.8887 44.2689 74.2778 44.4749C74.6669 44.6809 75.094 44.8053 75.5328 44.8407C75.9717 44.876 76.4131 44.8215 76.8302 44.6805C76.8748 44.761 76.9427 44.8261 77.0249 44.8674C77.1096 44.9104 77.2056 44.9263 77.2997 44.9128C77.3937 44.8994 77.4814 44.8572 77.5506 44.7921C77.6199 44.727 77.6674 44.6422 77.6867 44.5491C77.7059 44.456 77.696 44.3593 77.6583 44.272C77.8059 44.1707 77.9449 44.0572 78.0737 43.9328C78.7493 44.0427 79.4423 43.9358 80.0533 43.6275C80.6644 43.3193 81.1622 42.8254 81.4754 42.2168L79.7317 41.9235L81.6545 41.811Z" fill="#FF9500"/>
      <g opacity="0.1">
        <path d="M78.9611 42.6394C78.3173 41.7896 77.9227 40.7832 77.4684 39.8175C77.286 39.4211 77.0817 39.0351 76.8566 38.6614L76.5156 38.2642C76.4585 38.3126 76.4014 38.3628 76.3426 38.4156C76.0616 38.3701 75.7759 38.3617 75.4928 38.3905L75.1181 40.0961L75.0956 38.4519C74.6655 38.5462 74.2592 38.7272 73.9015 38.9838C73.5437 39.2404 73.2421 39.5673 73.0149 39.9445C72.7878 40.3217 72.64 40.7412 72.5805 41.1774C72.521 41.6137 72.5511 42.0574 72.6689 42.4816C72.7867 42.9059 72.9899 43.3016 73.2658 43.6446C73.5418 43.9877 73.8848 44.2709 74.2739 44.4769C74.663 44.6828 75.0901 44.8073 75.5289 44.8427C75.9678 44.878 76.4092 44.8235 76.8263 44.6825C76.8709 44.7629 76.9387 44.8281 77.021 44.8694C77.1057 44.9124 77.2017 44.9283 77.2958 44.9148C77.3898 44.9013 77.4775 44.8592 77.5467 44.7941C77.616 44.729 77.6635 44.6441 77.6828 44.5511C77.702 44.458 77.6921 44.3612 77.6544 44.274C77.802 44.1726 77.941 44.0592 78.0698 43.9348C78.7312 44.0419 79.4095 43.9415 80.0116 43.6475C79.6097 43.3699 79.255 43.0295 78.9611 42.6394Z" fill="black"/>
      </g>
      <path d="M67.56 38.9875C67.5957 38.917 67.6127 38.8385 67.6093 38.7595C67.606 38.6805 67.5825 38.6037 67.541 38.5364C67.4995 38.4691 67.4414 38.4136 67.3723 38.3752C67.3032 38.3367 67.2254 38.3167 67.1464 38.3169C67.0152 37.6215 66.6595 36.9882 66.1339 36.5144C66.2186 36.184 66.2508 35.8423 66.2291 35.5019L64.5287 35.212L66.1798 35.1082C66.1501 34.9532 66.1094 34.8005 66.0578 34.6513C66.122 34.6071 66.1744 34.5476 66.2101 34.4782C66.2517 34.3955 66.2676 34.3022 66.2557 34.2104C66.2437 34.1185 66.2045 34.0324 66.1431 33.963C66.0817 33.8937 66.0009 33.8444 65.9112 33.8215C65.8215 33.7985 65.7269 33.803 65.6398 33.8344C65.2025 33.2165 64.5626 32.7713 63.8312 32.5762C63.0998 32.3811 62.3232 32.4484 61.6362 32.7664C60.9493 33.0844 60.3955 33.6331 60.071 34.317C59.7465 35.0009 59.6719 35.7768 59.8601 36.5101C59.76 36.5523 59.6783 36.6291 59.63 36.7264C59.5875 36.8102 59.5716 36.9049 59.5844 36.998C59.5971 37.0911 59.638 37.178 59.7014 37.2473C59.7649 37.3166 59.8479 37.3649 59.9395 37.3858C60.0311 37.4066 60.1269 37.3991 60.2141 37.3642C60.38 37.6429 60.5868 37.8952 60.8276 38.1127C60.6523 38.7961 60.7052 39.5181 60.9782 40.1688L63.2584 39.5768L61.2248 40.6464C61.5844 41.2178 62.1135 41.6625 62.7382 41.9183C63.3629 42.1741 64.052 42.2283 64.709 42.0733C65.3661 41.9183 65.9582 41.5618 66.4027 41.0536C66.8472 40.5455 67.1217 39.9112 67.1879 39.2394C67.2663 39.2326 67.3416 39.2059 67.4067 39.1618C67.4718 39.1178 67.5246 39.0578 67.56 38.9875Z" fill="#FF9500"/>
      <path opacity="0.1" d="M67.5604 38.9874C67.5961 38.9169 67.6131 38.8383 67.6098 38.7594C67.6064 38.6804 67.5829 38.6036 67.5414 38.5363C67.4999 38.469 67.4418 38.4135 67.3727 38.3751C67.3036 38.3366 67.2258 38.3166 67.1468 38.3168C67.0156 37.6213 66.66 36.9881 66.1343 36.5142C66.1482 36.4597 66.1603 36.4061 66.1707 36.3516C66.1103 36.3953 66.0544 36.4449 66.0037 36.4995C65.6965 36.8362 65.539 37.2887 65.2352 37.6288C64.877 38.0303 64.3405 38.2398 63.8048 38.296C63.2692 38.3522 62.7301 38.27 62.2013 38.1671C61.7635 38.0805 61.3195 37.9801 60.8756 38.0226C60.8323 38.0226 60.7891 38.0321 60.7493 38.039C60.7752 38.0641 60.8012 38.0892 60.828 38.1134C60.6527 38.7969 60.7056 39.5189 60.9786 40.1695L63.2588 39.5767L61.2252 40.6463C61.5848 41.2176 62.1139 41.6623 62.7386 41.9182C63.3634 42.174 64.0524 42.2282 64.7095 42.0732C65.3665 41.9181 65.9586 41.5616 66.4031 41.0535C66.8476 40.5454 67.1221 39.9111 67.1883 39.2392C67.2667 39.2325 67.342 39.2058 67.4071 39.1617C67.4722 39.1176 67.525 39.0576 67.5604 38.9874Z" fill="black"/>
    </g>
    <g opacity="0.1">
      <path d="M8.49364 44.2401C8.6044 43.9035 9.05352 43.7486 9.49658 43.8939C9.56031 43.9148 9.622 43.9415 9.6809 43.9735C9.70945 43.9658 9.73888 43.9588 9.76743 43.9536C9.74312 43.857 9.73378 43.7572 9.73974 43.6577C9.58765 43.5548 9.46434 43.4149 9.38151 43.251C9.29867 43.0871 9.25905 42.9048 9.2664 42.7214C9.11298 42.6204 8.9893 42.4803 8.90814 42.3155C8.82358 42.1523 8.78386 41.9696 8.79305 41.7859C8.63973 41.6845 8.5161 41.5441 8.4348 41.3792C8.22192 40.9569 8.30845 40.4819 8.63296 40.3174C8.95747 40.153 9.39187 40.365 9.60561 40.7873C9.69003 40.9509 9.72945 41.134 9.71984 41.3178C9.87234 41.42 9.99598 41.5598 10.0789 41.7236C10.1618 41.8874 10.2011 42.0698 10.1932 42.2532C10.3456 42.3557 10.4692 42.4957 10.5521 42.6596C10.635 42.8235 10.6744 43.006 10.6665 43.1895C10.819 43.2918 10.9427 43.4315 11.0256 43.5953C11.1085 43.7592 11.1478 43.9416 11.1399 44.125C11.2935 44.2263 11.4174 44.3667 11.499 44.5317C11.5379 44.6115 11.567 44.6958 11.5855 44.7826C11.6388 44.7042 11.7039 44.6344 11.7785 44.5758C11.7874 44.5091 11.8025 44.4433 11.8235 44.3794C11.9697 43.9363 12.36 43.6664 12.6966 43.7737C13.0333 43.881 13.1873 44.3335 13.0428 44.7766C12.9831 44.9669 12.8683 45.1352 12.7131 45.2603C12.7041 45.3268 12.689 45.3922 12.6681 45.4559C12.5971 45.6908 12.4388 45.8895 12.2259 46.0114C12.2426 46.0681 12.2547 46.126 12.2622 46.1845C12.3516 46.2703 12.4256 46.3706 12.4812 46.4813C12.5378 46.5918 12.5747 46.7113 12.5902 46.8344C12.6799 46.9201 12.7542 47.0204 12.81 47.1312C12.8665 47.2417 12.9034 47.3612 12.919 47.4843C13.0089 47.5701 13.0833 47.6708 13.1388 47.782C13.3526 48.2042 13.2643 48.6802 12.9415 48.8429C12.6188 49.0056 12.1826 48.7961 11.9689 48.373C11.9125 48.2624 11.8756 48.143 11.8598 48.0199C11.6796 47.847 11.5636 47.6178 11.531 47.37C11.3507 47.1971 11.2347 46.9679 11.2022 46.7202C11.1126 46.6344 11.0382 46.5341 10.9824 46.4234C10.9264 46.3126 10.8896 46.1933 10.8733 46.0703C10.784 45.9845 10.71 45.8842 10.6544 45.7735C10.5978 45.663 10.5609 45.5435 10.5454 45.4204C10.4897 45.3685 10.44 45.3104 10.3974 45.2473C10.2194 45.2838 10.0349 45.2724 9.86262 45.2145C9.79865 45.1931 9.73669 45.1662 9.67744 45.134C9.48498 45.1851 9.28167 45.1779 9.09333 45.1132C8.65459 44.967 8.38374 44.5767 8.49364 44.2401Z" fill="#3F3D56"/>
      <g opacity="0.1">
        <path d="M9.27539 42.9136C9.32127 42.9588 9.37173 42.9991 9.42596 43.0339C9.41863 43.1581 9.43508 43.2827 9.47442 43.4008C9.43965 43.3536 9.40896 43.3035 9.38269 43.2511C9.32857 43.1452 9.29231 43.0312 9.27539 42.9136Z" fill="black"/>
        <path d="M8.80176 41.979C8.84787 42.0237 8.89831 42.0637 8.95233 42.0984C8.94506 42.223 8.9615 42.3478 9.00079 42.4662C8.89597 42.3223 8.82766 42.1551 8.80176 41.979Z" fill="black"/>
        <path d="M9.87802 41.6301C9.88213 41.566 9.87981 41.5016 9.87109 41.438C9.95569 41.5215 10.0261 41.6183 10.0796 41.7244C10.1058 41.7769 10.1278 41.8312 10.1454 41.8871C10.0733 41.7853 9.98257 41.6981 9.87802 41.6301Z" fill="black"/>
        <path d="M12.881 47.2948C12.8432 47.2417 12.8003 47.1925 12.7529 47.1477C12.745 47.089 12.7323 47.0312 12.7148 46.9746C12.7524 47.0254 12.7857 47.0793 12.8144 47.1356C12.8406 47.1869 12.8629 47.2401 12.881 47.2948Z" fill="black"/>
        <path d="M12.5492 46.6449C12.5113 46.5918 12.4685 46.5426 12.4211 46.4978C12.414 46.4391 12.4019 46.3812 12.3848 46.3247C12.4561 46.4212 12.511 46.5288 12.5475 46.6432L12.5492 46.6449Z" fill="black"/>
        <path d="M9.7498 43.8516C9.79523 43.8964 9.84543 43.9362 9.89951 43.9701C9.89304 44.0696 9.90238 44.1695 9.9272 44.2661C9.89803 44.2712 9.86915 44.2778 9.84066 44.286C9.78139 44.254 9.71942 44.2274 9.65548 44.2063C9.21242 44.061 8.7633 44.2159 8.6534 44.5525C8.62586 44.6362 8.62079 44.7258 8.63869 44.8121C8.5675 44.7372 8.51686 44.6452 8.49169 44.545C8.46653 44.4448 8.46768 44.3397 8.49504 44.2401C8.60581 43.9035 9.05492 43.7486 9.49798 43.894C9.56171 43.9149 9.6234 43.9415 9.6823 43.9736C9.71086 43.9658 9.74028 43.9589 9.76884 43.9537C9.76052 43.92 9.75416 43.8859 9.7498 43.8516Z" fill="black"/>
        <path d="M13.043 47.6211C13.0807 47.6721 13.114 47.7262 13.1425 47.7829C13.1689 47.8353 13.1912 47.8897 13.2091 47.9456C13.1713 47.8923 13.1284 47.8427 13.081 47.7976C13.0733 47.7378 13.0606 47.6788 13.043 47.6211Z" fill="black"/>
        <path d="M10.3516 42.5671C10.3558 42.503 10.3535 42.4386 10.3447 42.375C10.4295 42.4584 10.5 42.5551 10.5533 42.6614C10.5794 42.7136 10.6014 42.7677 10.619 42.8233C10.5469 42.7217 10.4562 42.6348 10.3516 42.5671Z" fill="black"/>
        <path d="M11.0353 46.3834C11.0434 46.4481 11.0576 46.5118 11.0777 46.5738C11.0056 46.4749 10.9506 46.3646 10.915 46.2476C10.951 46.2963 10.9912 46.3418 11.0353 46.3834Z" fill="black"/>
        <path d="M11.6927 47.6832C11.7014 47.7478 11.7159 47.8115 11.7359 47.8736C11.7012 47.8263 11.6705 47.7763 11.6442 47.7239C11.6157 47.6683 11.592 47.6104 11.5732 47.5508C11.6095 47.598 11.6494 47.6423 11.6927 47.6832Z" fill="black"/>
        <path d="M11.3644 47.0333C11.3725 47.0979 11.3867 47.1617 11.4068 47.2237C11.3724 47.1762 11.3417 47.1262 11.3151 47.0739C11.2865 47.0184 11.2628 46.9605 11.2441 46.9009C11.2803 46.9485 11.3205 46.9928 11.3644 47.0333Z" fill="black"/>
        <path d="M10.7068 45.7326C10.7148 45.7976 10.729 45.8616 10.7492 45.9238C10.7164 45.8763 10.6874 45.8263 10.6626 45.7741C10.6336 45.7187 10.6096 45.6608 10.5908 45.6011C10.6254 45.6484 10.6642 45.6924 10.7068 45.7326Z" fill="black"/>
        <path d="M12.8588 44.0892C12.5222 43.9785 12.1319 44.2484 11.9866 44.695C11.9655 44.7589 11.9505 44.8247 11.9416 44.8914C11.8667 44.9496 11.8013 45.0191 11.7477 45.0973C11.7276 45.0103 11.6971 44.9261 11.6569 44.8464C11.6421 44.817 11.6257 44.7884 11.6084 44.7599C11.6575 44.6917 11.7157 44.6305 11.7815 44.5781C11.7904 44.5114 11.8054 44.4456 11.8265 44.3817C11.9727 43.9386 12.363 43.6687 12.6996 43.776C12.7961 43.813 12.8814 43.8744 12.9472 43.9542C13.0131 44.0339 13.0571 44.1293 13.0752 44.2311C13.0164 44.1661 12.9419 44.1173 12.8588 44.0892Z" fill="black"/>
        <path d="M11.2979 44.4382C11.3021 44.3741 11.2997 44.3097 11.291 44.2461C11.3758 44.3294 11.4463 44.4262 11.4996 44.5325C11.5257 44.585 11.5477 44.6394 11.5653 44.6952C11.4934 44.5932 11.4027 44.506 11.2979 44.4382Z" fill="black"/>
        <path d="M10.8243 43.5017C10.8284 43.4376 10.8261 43.3732 10.8174 43.3096C10.9018 43.3933 10.9722 43.49 11.0259 43.596C11.0521 43.6484 11.074 43.7028 11.0917 43.7587C11.0196 43.6569 10.9289 43.5697 10.8243 43.5017Z" fill="black"/>
        <path d="M12.0218 48.3331C12.0301 48.3981 12.0446 48.4621 12.065 48.5243C12.0304 48.4767 11.9998 48.4263 11.9733 48.3738C11.9448 48.3182 11.9211 48.2603 11.9023 48.2007C11.9386 48.2479 11.9785 48.2922 12.0218 48.3331Z" fill="black"/>
      </g>
      <path d="M7.84794 39.9142C7.69452 39.8133 7.57084 39.6731 7.48969 39.5084C7.27594 39.0852 7.36421 38.6101 7.68698 38.4466C8.00976 38.283 8.4459 38.4933 8.65964 38.9165C8.74418 39.0797 8.78361 39.2625 8.77386 39.4461C8.92631 39.5486 9.04989 39.6885 9.13277 39.8524C9.21565 40.0164 9.25506 40.1988 9.24721 40.3824C9.40073 40.4835 9.52466 40.6235 9.60633 40.7882C9.6323 40.8401 9.65429 40.8939 9.6721 40.9492C9.55747 40.7856 9.39243 40.664 9.20221 40.603C9.18102 40.6706 9.14657 40.7333 9.10088 40.7875C9.05518 40.8416 8.99915 40.8861 8.93606 40.9183C8.87298 40.9505 8.8041 40.9699 8.73346 40.9752C8.66282 40.9805 8.59183 40.9716 8.52464 40.9492C8.46048 41.1386 8.46048 41.3439 8.52464 41.5333C8.49213 41.4862 8.4632 41.4367 8.43811 41.3853C8.35354 41.2221 8.31383 41.0393 8.32302 40.8557C8.17075 40.753 8.0473 40.6131 7.96445 40.4492C7.88159 40.2853 7.84207 40.1029 7.84967 39.9194L7.84794 39.9142Z" fill="#3F3D56"/>
      <path d="M2.64538 33.9137C2.51412 33.8523 2.38719 33.782 2.26549 33.7034L3.67428 32.6736L2.018 33.526C1.68313 33.2597 1.4061 32.9279 1.20389 32.5509C1.00168 32.1738 0.878539 31.7595 0.841995 31.3332L3.65784 31.3626L0.835938 30.8901C0.860235 30.4597 0.972924 30.0388 1.16698 29.6537C1.36104 29.2687 1.63231 28.9278 1.96389 28.6521C2.29547 28.3765 2.68026 28.1721 3.09428 28.0517C3.5083 27.9313 3.94269 27.8974 4.37037 27.9522C4.79805 28.007 5.20986 28.1493 5.58016 28.3702C5.95045 28.5911 6.27128 28.8859 6.52267 29.2362C6.77406 29.5865 6.95062 29.9848 7.04135 30.4063C7.13207 30.8279 7.13502 31.2636 7.05001 31.6863C7.25441 31.7808 7.44819 31.8969 7.62806 32.0324L6.15697 34.0781L7.92315 32.2885C8.29584 32.6546 8.5714 33.1078 8.72491 33.6072C8.87842 34.1066 8.90503 34.6363 8.80234 35.1485C9.33662 35.3974 9.79008 35.7916 10.1109 36.286C10.4317 36.7805 10.6068 37.3552 10.6163 37.9445C10.6259 38.5338 10.4693 39.1139 10.1647 39.6185C9.86002 40.123 9.41953 40.5316 8.89357 40.7976C8.3676 41.0636 7.7774 41.1762 7.19046 41.1225C6.60352 41.0689 6.04353 40.8511 5.57452 40.4942C5.10551 40.1372 4.74642 39.6555 4.53832 39.104C4.33021 38.5526 4.28149 37.9538 4.39772 37.3759C3.76003 37.0788 3.24065 36.576 2.92289 35.9483C2.60512 35.3206 2.5074 34.6044 2.64538 33.9145V33.9137Z" fill="#FF9500"/>
      <path opacity="0.1" d="M8.52532 33.116C8.84447 33.7442 8.94205 34.4617 8.80223 35.1522C9.33651 35.4011 9.78997 35.7953 10.1108 36.2897C10.4315 36.7841 10.6067 37.3589 10.6162 37.9482C10.6257 38.5375 10.4692 39.1176 10.1646 39.6222C9.85992 40.1267 9.41942 40.5353 8.89346 40.8013C8.36749 41.0673 7.7773 41.1799 7.19035 41.1262C6.60341 41.0725 6.04342 40.8548 5.57441 40.4978C5.1054 40.1409 4.74631 39.6592 4.53821 39.1077C4.3301 38.5563 4.28138 37.9574 4.39761 37.3796C3.78061 37.0932 8.36696 32.8019 8.52532 33.116Z" fill="black"/>
      <path d="M4.98791 28.571C5.24551 28.571 5.45433 28.3622 5.45433 28.1046C5.45433 27.847 5.24551 27.6382 4.98791 27.6382C4.73031 27.6382 4.52148 27.847 4.52148 28.1046C4.52148 28.3622 4.73031 28.571 4.98791 28.571Z" fill="#FF9500"/>
      <path d="M2.26525 28.8703C2.52285 28.8703 2.73167 28.6615 2.73167 28.4039C2.73167 28.1463 2.52285 27.9375 2.26525 27.9375C2.00765 27.9375 1.79883 28.1463 1.79883 28.4039C1.79883 28.6615 2.00765 28.8703 2.26525 28.8703Z" fill="#FF9500"/>
      <path d="M1.21642 33.0578C1.47402 33.0578 1.68285 32.849 1.68285 32.5914C1.68285 32.3338 1.47402 32.125 1.21642 32.125C0.958825 32.125 0.75 32.3338 0.75 32.5914C0.75 32.849 0.958825 33.0578 1.21642 33.0578Z" fill="#FF9500"/>
      <path d="M2.63342 35.1496C2.89101 35.1496 3.09984 34.9408 3.09984 34.6832C3.09984 34.4256 2.89101 34.2168 2.63342 34.2168C2.37582 34.2168 2.16699 34.4256 2.16699 34.6832C2.16699 34.9408 2.37582 35.1496 2.63342 35.1496Z" fill="#FF9500"/>
      <path d="M4.56799 39.4924C4.82558 39.4924 5.03441 39.2836 5.03441 39.026C5.03441 38.7684 4.82558 38.5596 4.56799 38.5596C4.31039 38.5596 4.10156 38.7684 4.10156 39.026C4.10156 39.2836 4.31039 39.4924 4.56799 39.4924Z" fill="#FF9500"/>
      <path opacity="0.1" d="M4.56799 39.4924C4.82558 39.4924 5.03441 39.2836 5.03441 39.026C5.03441 38.7684 4.82558 38.5596 4.56799 38.5596C4.31039 38.5596 4.10156 38.7684 4.10156 39.026C4.10156 39.2836 4.31039 39.4924 4.56799 39.4924Z" fill="black"/>
      <path d="M8.8717 34.573C9.12929 34.573 9.33812 34.3642 9.33812 34.1066C9.33812 33.849 9.12929 33.6401 8.8717 33.6401C8.6141 33.6401 8.40527 33.849 8.40527 34.1066C8.40527 34.3642 8.6141 34.573 8.8717 34.573Z" fill="#FF9500"/>
      <path opacity="0.1" d="M8.8717 34.573C9.12929 34.573 9.33812 34.3642 9.33812 34.1066C9.33812 33.849 9.12929 33.6401 8.8717 33.6401C8.6141 33.6401 8.40527 33.849 8.40527 34.1066C8.40527 34.3642 8.6141 34.573 8.8717 34.573Z" fill="black"/>
      <path opacity="0.1" d="M9.36879 41.7717C9.67858 41.6151 9.77204 41.172 9.59118 40.7627C9.6007 40.78 9.61022 40.7964 9.61888 40.8137C9.83262 41.2369 9.74435 41.712 9.42071 41.8755C9.09707 42.0391 8.66266 41.8288 8.44892 41.4056C8.44027 41.3883 8.43162 41.371 8.42383 41.3529C8.64622 41.7414 9.05899 41.9283 9.36879 41.7717Z" fill="black"/>
      <path opacity="0.1" d="M9.82886 42.6823C10.1387 42.5257 10.233 42.0818 10.0521 41.6733C10.0616 41.6898 10.0712 41.7071 10.0798 41.7244C10.2936 42.1476 10.2053 42.6226 9.88165 42.7862C9.55801 42.9497 9.1236 42.7394 8.90986 42.3163C8.90034 42.299 8.89255 42.2808 8.88477 42.2635C9.10716 42.6538 9.5208 42.839 9.82886 42.6823Z" fill="black"/>
      <path opacity="0.1" d="M10.2888 43.5915C10.5986 43.4349 10.6929 42.9918 10.5112 42.5825C10.5216 42.5998 10.5303 42.6163 10.5398 42.6344C10.7535 43.0567 10.6644 43.5327 10.3416 43.6954C10.0188 43.858 9.58356 43.6486 9.36982 43.2255C9.3603 43.2082 9.35251 43.1909 9.34473 43.1727C9.56626 43.5612 9.97903 43.7481 10.2888 43.5915Z" fill="black"/>
      <path opacity="0.1" d="M10.7488 44.5022C11.0586 44.3455 11.1529 43.9025 10.9712 43.4932C10.9807 43.5096 10.9902 43.5269 10.9989 43.5442C11.2135 43.9674 11.1243 44.4425 10.8016 44.606C10.4788 44.7696 10.0427 44.5593 9.82892 44.1361C9.82026 44.1188 9.81248 44.1006 9.80469 44.0833C10.0262 44.471 10.439 44.6588 10.7488 44.5022Z" fill="black"/>
      <path opacity="0.1" d="M11.2096 45.4115C11.5194 45.2548 11.6129 44.8118 11.432 44.4033C11.4415 44.4198 11.451 44.4371 11.4597 44.4544C11.6734 44.8775 11.5852 45.3526 11.2624 45.5162C10.9396 45.6797 10.5035 45.4686 10.2897 45.0463C10.2811 45.0281 10.2733 45.0108 10.2646 44.9935C10.487 45.3812 10.8998 45.5681 11.2096 45.4115Z" fill="black"/>
      <path opacity="0.1" d="M11.6696 46.322C11.9794 46.1654 12.0728 45.7223 11.892 45.313C11.9015 45.3303 11.911 45.3467 11.9197 45.364C12.1334 45.7872 12.0451 46.2623 11.7224 46.4258C11.3996 46.5894 10.9634 46.3791 10.7497 45.9559C10.7411 45.9386 10.7324 45.9213 10.7246 45.9032C10.947 46.2882 11.3598 46.4786 11.6696 46.322Z" fill="black"/>
      <path opacity="0.1" d="M12.1305 47.2321C12.4394 47.0755 12.5338 46.6316 12.3529 46.2231C12.3624 46.2396 12.3719 46.2569 12.3806 46.2742C12.5943 46.6974 12.5061 47.1724 12.1824 47.336C11.8588 47.4995 11.4244 47.2884 11.2106 46.8661C11.202 46.8479 11.1933 46.8306 11.1855 46.8133C11.4079 47.201 11.8207 47.3888 12.1305 47.2321Z" fill="black"/>
      <path opacity="0.1" d="M12.5896 48.1418C12.8994 47.9852 12.9937 47.5421 12.812 47.1328C12.8224 47.1501 12.831 47.1666 12.8406 47.1847C13.0543 47.607 12.9652 48.083 12.6424 48.2457C12.3196 48.4083 11.8843 48.1989 11.6706 47.7758C11.6611 47.7585 11.6533 47.7412 11.6455 47.723C11.8679 48.1115 12.2798 48.2984 12.5896 48.1418Z" fill="black"/>
      <path opacity="0.1" d="M12.8952 48.74C13.205 48.5833 13.2984 48.1403 13.1176 47.731C13.1271 47.7483 13.1366 47.7647 13.1452 47.7829C13.359 48.2052 13.2707 48.6811 12.9479 48.8438C12.6252 49.0065 12.189 48.7971 11.9753 48.3739C11.9666 48.3566 11.958 48.3393 11.9502 48.3211C12.17 48.7114 12.5828 48.8966 12.8952 48.74Z" fill="black"/>
      <path d="M4.57533 44.6901C4.52727 44.5525 4.49816 44.4089 4.48879 44.2635C4.4568 44.2634 4.42516 44.2567 4.39588 44.2438C4.36659 44.2309 4.34027 44.2121 4.31856 44.1886C4.29686 44.1651 4.28024 44.1373 4.26973 44.1071C4.25923 44.0769 4.25507 44.0448 4.25752 44.0129C4.25996 43.981 4.26896 43.9499 4.28394 43.9217C4.29893 43.8934 4.31959 43.8685 4.34462 43.8486C4.36965 43.8287 4.39853 43.8141 4.42944 43.8058C4.46035 43.7976 4.49263 43.7957 4.52427 43.8005C4.5762 43.5647 4.67992 43.3433 4.82794 43.1525C4.97596 42.9617 5.16457 42.8061 5.3801 42.6972C5.35222 42.642 5.3474 42.578 5.36672 42.5192C5.38603 42.4605 5.42789 42.4118 5.48308 42.3839C5.53828 42.3561 5.60229 42.3512 5.66104 42.3705C5.71978 42.3899 5.76845 42.4317 5.79634 42.4869C5.80647 42.5065 5.81348 42.5275 5.81711 42.5492C6.07316 42.5022 6.33673 42.5169 6.58596 42.5922C6.83518 42.6674 7.06287 42.801 7.25012 42.9819C7.39315 42.9585 7.53868 42.9544 7.6828 42.9698L7.87144 43.8282L7.87577 43.0001C8.09033 43.0497 8.29262 43.1422 8.47046 43.2721C8.6483 43.402 8.79799 43.5665 8.91052 43.7558C9.02305 43.9451 9.09609 44.1552 9.12523 44.3735C9.15436 44.5918 9.139 44.8137 9.08006 45.0259C9.02113 45.2381 8.91984 45.4361 8.7823 45.6081C8.64476 45.7801 8.47382 45.9224 8.27978 46.0266C8.08575 46.1307 7.87263 46.1945 7.65329 46.2141C7.43394 46.2336 7.2129 46.2086 7.0035 46.1404C6.98072 46.1807 6.94675 46.2134 6.90571 46.2347C6.86294 46.2563 6.81457 46.2642 6.76715 46.2574C6.71973 46.2506 6.67555 46.2294 6.6406 46.1966C6.60566 46.1638 6.58163 46.1211 6.57178 46.0742C6.56193 46.0273 6.56673 45.9785 6.58554 45.9345C6.51134 45.8827 6.44158 45.8248 6.37699 45.7614C6.0366 45.8165 5.68751 45.7625 5.37971 45.6071C5.07192 45.4516 4.82124 45.2027 4.6636 44.896L5.54192 44.7481L4.57533 44.6901Z" fill="#FF9500"/>
      <g opacity="0.1">
        <path d="M5.93236 45.1069C6.25686 44.6742 6.45589 44.1723 6.68435 43.686C6.77583 43.4858 6.87869 43.2911 6.99241 43.1027L7.16548 42.9028C7.1949 42.9279 7.22346 42.953 7.25202 42.979C7.39504 42.9556 7.54057 42.9515 7.68469 42.9669L7.87334 43.8253L7.87593 42.9998C8.09049 43.0493 8.29279 43.1419 8.47062 43.2718C8.64846 43.4017 8.79815 43.5662 8.91068 43.7555C9.02321 43.9448 9.09625 44.1549 9.12539 44.3732C9.15453 44.5915 9.13916 44.8134 9.08023 45.0256C9.02129 45.2378 8.92 45.4358 8.78246 45.6078C8.64492 45.7798 8.47398 45.9221 8.27994 46.0263C8.08591 46.1304 7.87279 46.1942 7.65345 46.2138C7.4341 46.2333 7.21306 46.2083 7.00366 46.1401C6.98088 46.1803 6.94691 46.2131 6.90588 46.2344C6.86311 46.256 6.81473 46.2639 6.76731 46.2571C6.71989 46.2503 6.67571 46.229 6.64077 46.1963C6.60582 46.1635 6.58179 46.1208 6.57194 46.0739C6.56209 46.027 6.56689 45.9782 6.5857 45.9341C6.5115 45.8823 6.44174 45.8245 6.37715 45.7611C6.04381 45.8145 5.7021 45.7641 5.39844 45.6166C5.60268 45.4765 5.78297 45.3044 5.93236 45.1069Z" fill="black"/>
      </g>
      <path d="M11.6755 43.2675C11.6617 43.2402 11.6534 43.2105 11.6511 43.18C11.6487 43.1495 11.6525 43.1189 11.662 43.0898C11.6716 43.0608 11.6868 43.034 11.7068 43.0108C11.7268 42.9877 11.7512 42.9687 11.7785 42.9551C11.8112 42.9383 11.8474 42.9297 11.8841 42.93C11.9501 42.5795 12.1291 42.2604 12.3938 42.0214C12.351 41.8551 12.3349 41.683 12.3462 41.5117L13.202 41.368L12.3704 41.3152C12.3855 41.2371 12.4063 41.1601 12.4327 41.085C12.4 41.0633 12.3735 41.0335 12.3557 40.9985C12.3349 40.9568 12.327 40.9099 12.3331 40.8637C12.3392 40.8175 12.3589 40.7742 12.3898 40.7393C12.4207 40.7044 12.4613 40.6795 12.5064 40.6679C12.5515 40.6563 12.5991 40.6584 12.643 40.674C12.7958 40.4566 13 40.2803 13.2375 40.1609C13.5171 40.0189 13.8318 39.9607 14.1437 39.9931C14.4556 40.0255 14.7516 40.1472 14.9961 40.3436C15.2406 40.54 15.4233 40.8027 15.5223 41.1003C15.6212 41.3978 15.6322 41.7177 15.554 42.0214C15.5947 42.0388 15.6296 42.0675 15.6545 42.104C15.6795 42.1405 15.6935 42.1834 15.695 42.2277C15.6964 42.2719 15.6852 42.3156 15.6627 42.3537C15.6402 42.3918 15.6073 42.4227 15.5679 42.4428C15.5383 42.4578 15.5059 42.4663 15.4727 42.4678C15.4396 42.4693 15.4066 42.4637 15.3758 42.4514C15.2922 42.5914 15.1881 42.718 15.0668 42.827C15.1555 43.1721 15.1291 43.5367 14.9915 43.8654L13.8467 43.5643L14.8704 44.1034C14.7167 44.3486 14.5005 44.5486 14.2441 44.6828C13.9876 44.817 13.7001 44.8806 13.411 44.867C13.1219 44.8534 12.8415 44.7632 12.5988 44.6056C12.356 44.448 12.1595 44.2287 12.0295 43.9701C11.9389 43.7901 11.882 43.5951 11.8616 43.3947C11.8223 43.3911 11.7846 43.3775 11.752 43.3553C11.7194 43.333 11.6931 43.3028 11.6755 43.2675Z" fill="#FF9500"/>
      <path opacity="0.1" d="M11.6755 43.2674C11.6617 43.2401 11.6534 43.2104 11.6511 43.1799C11.6487 43.1494 11.6525 43.1188 11.662 43.0898C11.6716 43.0607 11.6868 43.0339 11.7068 43.0108C11.7268 42.9876 11.7512 42.9687 11.7785 42.955C11.8112 42.9383 11.8474 42.9297 11.8841 42.9299C11.9501 42.5795 12.1291 42.2603 12.3938 42.0213C12.3868 41.9945 12.3808 41.9668 12.3756 41.9399C12.4066 41.9621 12.4356 41.987 12.4621 42.0144C12.617 42.1874 12.6966 42.4116 12.8489 42.5829C13.0398 42.7798 13.2963 42.8996 13.5698 42.9195C13.8406 42.9382 14.1127 42.9163 14.3771 42.8546C14.5952 42.7984 14.8201 42.7737 15.0452 42.7811L15.1092 42.7897L15.0694 42.8269C15.1581 43.172 15.1317 43.5366 14.9941 43.8653L13.8467 43.5642L14.8704 44.1033C14.7167 44.3486 14.5005 44.5486 14.2441 44.6827C13.9876 44.8169 13.7001 44.8805 13.411 44.8669C13.1219 44.8534 12.8415 44.7632 12.5988 44.6056C12.356 44.448 12.1595 44.2286 12.0295 43.9701C11.9389 43.7901 11.882 43.595 11.8616 43.3946C11.8223 43.391 11.7846 43.3775 11.752 43.3552C11.7194 43.3329 11.6931 43.3027 11.6755 43.2674Z" fill="black"/>
    </g>
    <path opacity="0.1" d="M30.7209 4.49178C30.3788 4.42684 30.0251 4.46541 29.705 4.60255C29.513 4.68811 29.3051 4.73233 29.0949 4.73233C28.8847 4.73233 28.6768 4.68811 28.4848 4.60255C28.2579 4.50307 28.012 4.4541 27.7643 4.45903C27.5166 4.46396 27.2729 4.52268 27.0501 4.6311C26.9228 4.69831 26.7812 4.73365 26.6373 4.73408C26.0558 4.73408 25.5721 4.14824 25.4717 3.37548C25.5876 3.29049 25.6863 3.18418 25.7624 3.06223C26.1034 2.51273 26.6278 2.15967 27.224 2.15967C27.8202 2.15967 28.3394 2.50581 28.6804 3.05184C28.7823 3.21582 28.9246 3.35083 29.0937 3.44389C29.2629 3.53694 29.4531 3.5849 29.6461 3.58317H29.6617C30.1203 3.58057 30.521 3.95181 30.7209 4.49178Z" fill="#FF9500"/>
    <path opacity="0.1" d="M32.4885 2.06905L31.5487 2.66528L32.119 1.62686C31.9572 1.49799 31.7572 1.42674 31.5504 1.42436H31.5357C31.4705 1.42516 31.4054 1.42024 31.341 1.40965L31.0217 1.61215L31.1584 1.36379C30.9334 1.28548 30.7385 1.13873 30.6011 0.944096L30.0291 1.30148L30.3891 0.646416C30.056 0.245759 29.606 0 29.1119 0C28.5191 0 27.9869 0.353062 27.6494 0.902559C27.5485 1.06669 27.4058 1.20118 27.2361 1.29237C27.0663 1.38356 26.8754 1.4282 26.6828 1.42177H26.6543C26.0001 1.42177 25.4688 2.16337 25.4688 3.07978C25.4688 3.99618 26.0001 4.73692 26.6543 4.73692C26.7982 4.73649 26.9398 4.70115 27.067 4.63394C27.2898 4.52543 27.5336 4.46674 27.7814 4.46195C28.0291 4.45717 28.275 4.50641 28.5018 4.60625C28.6939 4.69155 28.9017 4.73563 29.1119 4.73563C29.322 4.73563 29.5299 4.69155 29.7219 4.60625C29.947 4.50853 30.1905 4.46043 30.4358 4.4652C30.6812 4.46998 30.9226 4.52753 31.1437 4.63394C31.27 4.69935 31.41 4.73376 31.5522 4.73433C32.2072 4.73433 32.7377 3.99272 32.7377 3.07718C32.74 2.72561 32.6543 2.37905 32.4885 2.06905Z" fill="#FF9500"/>
    <path opacity="0.1" d="M11.1642 16.4803C10.6755 16.3879 10.1704 16.4427 9.71296 16.6378C9.43845 16.7595 9.14138 16.822 8.8411 16.8213C8.54082 16.8205 8.24406 16.7566 7.97015 16.6335C7.64604 16.4914 7.29493 16.4214 6.9411 16.4285C6.58728 16.4355 6.23922 16.5193 5.92101 16.6742C5.73901 16.7701 5.53654 16.8205 5.33084 16.8213C4.5001 16.8213 3.80869 15.9845 3.66504 14.8803C3.83104 14.7594 3.97209 14.6074 4.08041 14.4329C4.5676 13.6481 5.32218 13.1436 6.16936 13.1436C7.01654 13.1436 7.7616 13.642 8.2462 14.4182C8.39184 14.6535 8.5959 14.847 8.83853 14.98C9.08116 15.113 9.35409 15.1809 9.63076 15.1771H9.65239C10.3083 15.1763 10.8812 15.7067 11.1642 16.4803Z" fill="#FF9500"/>
    <path opacity="0.1" d="M13.6908 13.0147L12.3478 13.8662L13.163 12.3839C12.932 12.1995 12.646 12.0975 12.3504 12.094H12.3288C12.2355 12.0954 12.1422 12.0884 12.0501 12.0732L11.5967 12.3666L11.7923 12.0118C11.4696 11.899 11.1909 11.687 10.9961 11.4061L10.181 11.9253L10.6941 10.982C10.2173 10.41 9.57524 10.0596 8.86911 10.0596C8.02194 10.0596 7.26735 10.5632 6.78016 11.3481C6.63586 11.5836 6.43169 11.7766 6.18847 11.9075C5.94524 12.0384 5.67165 12.1025 5.3956 12.0931H5.34974C4.4143 12.0931 3.65625 13.1532 3.65625 14.4616C3.65625 15.77 4.4143 16.8301 5.34974 16.8301C5.55557 16.8295 5.75816 16.7787 5.93991 16.6821C6.25818 16.5274 6.60628 16.4437 6.9601 16.4368C7.31392 16.4299 7.66501 16.5 7.98905 16.6423C8.26296 16.7653 8.55972 16.8293 8.86 16.8301C9.16028 16.8308 9.45735 16.7683 9.73187 16.6466C10.0535 16.507 10.4014 16.4382 10.752 16.4449C11.1026 16.4517 11.4476 16.5337 11.7637 16.6855C11.9437 16.7798 12.1438 16.8293 12.347 16.8301C13.2824 16.8301 14.0404 15.7691 14.0404 14.4616C14.047 13.9576 13.9267 13.4601 13.6908 13.0147Z" fill="#FF9500"/>
    <path opacity="0.1" d="M65.4756 7.86672C65.8177 7.80183 66.1714 7.84039 66.4915 7.97748C66.6833 8.06308 66.8911 8.10732 67.1011 8.10732C67.3112 8.10732 67.5189 8.06308 67.7108 7.97748C67.9377 7.878 68.1836 7.82903 68.4313 7.83397C68.679 7.8389 68.9227 7.89761 69.1455 8.00604C69.2728 8.07314 69.4144 8.10847 69.5583 8.10901C70.1398 8.10901 70.6244 7.52317 70.7248 6.75042C70.6086 6.66565 70.5099 6.55929 70.434 6.43716C70.0948 5.88593 69.5644 5.53027 68.9699 5.53027C68.3754 5.53027 67.8553 5.87641 67.5143 6.42245C67.4127 6.58716 67.2702 6.72285 67.1007 6.81638C66.9312 6.90992 66.7405 6.95813 66.5469 6.95637H66.5322C66.0718 6.9555 65.6703 7.32674 65.4756 7.86672Z" fill="#FF9500"/>
    <path opacity="0.1" d="M63.7032 5.44412L64.643 6.03861L64.0718 5.00019C64.2336 4.87145 64.4336 4.80021 64.6404 4.7977H64.6559C64.7211 4.79845 64.7863 4.79353 64.8506 4.78299L65.1691 4.98548L65.0324 4.73713C65.259 4.66013 65.4557 4.51394 65.5948 4.31916L66.1651 4.68088L65.8043 4.02581C66.1383 3.62515 66.5831 3.37939 67.0824 3.37939C67.6751 3.37939 68.2073 3.73246 68.5448 4.28195C68.6457 4.44615 68.7883 4.58068 68.9581 4.67188C69.1279 4.76308 69.3188 4.80769 69.5114 4.80116H69.5426C70.1976 4.80116 70.7281 5.54277 70.7281 6.45917C70.7281 7.37558 70.1976 8.11632 69.5426 8.11632C69.3987 8.11567 69.2571 8.08035 69.1298 8.01334C68.907 7.90482 68.6632 7.84613 68.4155 7.84135C68.1677 7.83657 67.9219 7.88581 67.6951 7.98565C67.5031 8.07093 67.2954 8.11499 67.0854 8.11499C66.8754 8.11499 66.6677 8.07093 66.4758 7.98565C66.2505 7.88791 66.0069 7.8398 65.7614 7.84457C65.516 7.84935 65.2744 7.90691 65.0531 8.01334C64.9269 8.07884 64.7869 8.11326 64.6447 8.11372C63.9905 8.11372 63.4592 7.37212 63.4592 6.45658C63.4545 6.10399 63.5385 5.75588 63.7032 5.44412Z" fill="#FF9500"/>
    <path opacity="0.1" d="M54.0238 67.227C59.5199 67.227 63.9753 66.4522 63.9753 65.4963C63.9753 64.5405 59.5199 63.7656 54.0238 63.7656C48.5277 63.7656 44.0723 64.5405 44.0723 65.4963C44.0723 66.4522 48.5277 67.227 54.0238 67.227Z" fill="#FF9500"/>
    <path d="M48.8152 57.2757L33.3955 57.0775L33.4414 56.6821L34.1864 50.1582H47.7283L48.7243 56.6821L48.8005 57.177L48.8152 57.2757Z" fill="#D0D2D5"/>
    <path opacity="0.1" d="M48.8005 57.1771H41.1058L33.3955 57.0776L33.4414 56.6821H48.7243L48.8005 57.1771Z" fill="black"/>
    <path d="M51.2864 56.7817H30.8252V57.2759H51.2864V56.7817Z" fill="#D0D2D5"/>
    <path d="M70.8077 10.9752C70.8088 10.6342 70.6746 10.3067 70.4344 10.0646C70.1943 9.82256 69.8679 9.68569 69.5269 9.68408H12.3862C12.2172 9.68488 12.05 9.71895 11.8942 9.78435C11.7384 9.84975 11.597 9.9452 11.4781 10.0652C11.3592 10.1853 11.265 10.3276 11.2011 10.484C11.1372 10.6404 11.1047 10.8079 11.1055 10.9769V45.6125H70.8077V10.9752Z" fill="#3F3D56"/>
    <path d="M11.1055 45.2666V49.3234C11.1055 49.663 11.2404 49.9888 11.4806 50.229C11.7208 50.4691 12.0465 50.6041 12.3862 50.6041H69.5269C69.8666 50.6041 70.1923 50.4691 70.4325 50.229C70.6727 49.9888 70.8076 49.663 70.8076 49.3234V45.2666H11.1055Z" fill="#D0D2D5"/>
    <path d="M68.6333 11.856H13.5771V42.9921H68.6333V11.856Z" fill="white"/>
    <path d="M41.2534 49.0646C41.4556 49.0649 41.6551 49.0191 41.837 48.9308C42.0188 48.8425 42.1782 48.714 42.3031 48.5549C42.341 48.5065 42.3757 48.4557 42.4069 48.4026L41.674 48.2789L42.4658 48.2841C42.5417 48.119 42.5831 47.9401 42.5874 47.7584C42.5917 47.5767 42.5588 47.396 42.4909 47.2275L41.4291 47.7779L42.4086 47.0579C42.3166 46.8998 42.1931 46.7622 42.0457 46.6539C41.8983 46.5455 41.7302 46.4686 41.5519 46.4279C41.3735 46.3873 41.1887 46.3837 41.0089 46.4175C40.8291 46.4513 40.6582 46.5216 40.5067 46.6243C40.3553 46.7269 40.2265 46.8596 40.1285 47.0141C40.0305 47.1685 39.9653 47.3415 39.937 47.5223C39.9087 47.703 39.9178 47.8876 39.9638 48.0647C40.0099 48.2417 40.0918 48.4074 40.2046 48.5515C40.329 48.711 40.4881 48.8401 40.6698 48.929C40.8515 49.018 41.0511 49.0643 41.2534 49.0646Z" fill="#FF9500"/>
    <path opacity="0.1" d="M42.5879 50.603L48.7397 56.7816L47.7956 50.603H42.5879Z" fill="black"/>
    <path opacity="0.1" d="M68.65 11.8594H13.5342V13.6783H68.65V11.8594Z" fill="#444053"/>
    <path opacity="0.3" d="M49.2258 12.1763H32.7201C32.6924 12.1763 32.6699 12.1987 32.6699 12.2265V13.2329C32.6699 13.2606 32.6924 13.2831 32.7201 13.2831H49.2258C49.2535 13.2831 49.276 13.2606 49.276 13.2329V12.2265C49.276 12.1987 49.2535 12.1763 49.2258 12.1763Z" fill="#FF9500"/>
    <path d="M48.7831 12.8445H48.7424L48.7277 12.8315C48.778 12.771 48.8056 12.6947 48.8056 12.616C48.805 12.5514 48.7854 12.4884 48.7491 12.4349C48.7128 12.3814 48.6615 12.3399 48.6016 12.3156C48.5418 12.2912 48.4761 12.2852 48.4128 12.2982C48.3494 12.3112 48.2914 12.3426 48.246 12.3885C48.2005 12.4345 48.1697 12.4928 48.1574 12.5563C48.145 12.6197 48.1518 12.6854 48.1768 12.745C48.2017 12.8046 48.2438 12.8555 48.2976 12.8912C48.3515 12.9269 48.4147 12.9459 48.4793 12.9457C48.5581 12.9454 48.6344 12.9176 48.6948 12.867L48.7095 12.8799V12.9206L48.9631 13.1742L49.0383 13.098L48.7831 12.8445ZM48.4793 12.8445C48.4341 12.8446 48.3899 12.8314 48.3522 12.8064C48.3145 12.7814 48.2851 12.7458 48.2676 12.704C48.2502 12.6623 48.2456 12.6163 48.2543 12.572C48.263 12.5276 48.2847 12.4868 48.3166 12.4548C48.3485 12.4227 48.3892 12.4009 48.4336 12.392C48.4779 12.3831 48.5239 12.3876 48.5657 12.4049C48.6075 12.4221 48.6432 12.4514 48.6683 12.489C48.6935 12.5266 48.7069 12.5708 48.7069 12.616C48.7071 12.646 48.7014 12.6757 48.6901 12.7035C48.6787 12.7313 48.662 12.7565 48.6408 12.7778C48.6197 12.799 48.5945 12.8158 48.5668 12.8273C48.539 12.8387 48.5093 12.8446 48.4793 12.8445Z" fill="#3F3D56"/>
    <path opacity="0.8" d="M14.5246 13.1024C14.7086 13.1024 14.8577 12.9532 14.8577 12.7692C14.8577 12.5852 14.7086 12.436 14.5246 12.436C14.3406 12.436 14.1914 12.5852 14.1914 12.7692C14.1914 12.9532 14.3406 13.1024 14.5246 13.1024Z" fill="#FA5959"/>
    <path opacity="0.8" d="M15.4406 13.1024C15.6246 13.1024 15.7737 12.9532 15.7737 12.7692C15.7737 12.5852 15.6246 12.436 15.4406 12.436C15.2566 12.436 15.1074 12.5852 15.1074 12.7692C15.1074 12.9532 15.2566 13.1024 15.4406 13.1024Z" fill="#FED253"/>
    <path opacity="0.8" d="M16.3585 13.1024C16.5425 13.1024 16.6917 12.9532 16.6917 12.7692C16.6917 12.5852 16.5425 12.436 16.3585 12.436C16.1746 12.436 16.0254 12.5852 16.0254 12.7692C16.0254 12.9532 16.1746 13.1024 16.3585 13.1024Z" fill="#8CCF4D"/>
    <path d="M44.0218 25.2163C43.2664 24.2125 42.1717 23.5791 40.9533 23.5791C39.7349 23.5791 38.6402 24.2125 37.8848 25.2163C38.0518 25.626 38.2989 25.9982 38.6117 26.311C38.9982 26.6973 39.4742 26.982 39.9974 27.1397C40.5207 27.2974 41.0748 27.3233 41.6104 27.2149C42.146 27.1065 42.6465 26.8673 43.0672 26.5186C43.488 26.1699 43.8159 25.7225 44.0218 25.2163Z" fill="#FF9500"/>
    <path d="M37.4861 25.8039C37.4323 25.7808 37.3812 25.7518 37.3338 25.7174C37.2621 25.6587 37.2047 25.5844 37.1659 25.5002C37.2154 25.3985 37.2363 25.2852 37.2261 25.1726C37.216 25.0599 37.1753 24.9521 37.1084 24.8609C37.0415 24.7697 36.951 24.6984 36.8466 24.6549C36.7422 24.6113 36.6279 24.5971 36.5161 24.6137C36.4042 24.6303 36.2989 24.6771 36.2117 24.7491C36.1245 24.8212 36.0586 24.9156 36.0211 25.0223C35.9836 25.1291 35.976 25.244 35.999 25.3547C36.022 25.4655 36.0748 25.5678 36.1517 25.6508C36.1951 25.6968 36.2446 25.7367 36.2989 25.7693C36.3693 25.8101 36.4266 25.8701 36.4641 25.9424C36.5349 26.0853 36.6325 26.2134 36.7514 26.3197C36.8735 26.4244 37.0054 26.5171 37.1452 26.5966C36.9527 27.1413 36.8436 27.7119 36.8215 28.2892C36.5978 28.293 36.3757 28.3288 36.1621 28.3957C36.0528 28.4296 35.9496 28.4811 35.8567 28.548C35.8317 28.5449 35.8065 28.5432 35.7814 28.5428C35.6678 28.5428 35.5565 28.5738 35.4593 28.6326C35.3622 28.6914 35.2829 28.7756 35.2302 28.8762C35.1775 28.9768 35.1534 29.0899 35.1604 29.2032C35.1673 29.3165 35.2052 29.4258 35.2698 29.5191C35.3345 29.6125 35.4234 29.6864 35.527 29.7328C35.6307 29.7792 35.745 29.7964 35.8577 29.7824C35.9704 29.7685 36.0771 29.724 36.1663 29.6537C36.2555 29.5835 36.3238 29.4902 36.3638 29.3839C36.3883 29.3153 36.4313 29.2549 36.4879 29.2091C36.5445 29.1633 36.6126 29.134 36.6848 29.1243C36.7379 29.1179 36.7914 29.1144 36.8449 29.1139C36.9192 29.9282 37.1718 30.7161 37.5848 31.4218C37.2179 31.7065 36.992 32.0171 36.8968 32.3616C36.879 32.3714 36.8625 32.3833 36.8475 32.397C36.8214 32.4174 36.7971 32.44 36.7748 32.4645C36.7007 32.5461 36.6495 32.6459 36.6267 32.7537C36.6038 32.8615 36.61 32.9734 36.6447 33.0781C36.6794 33.1827 36.7413 33.2762 36.824 33.349C36.9068 33.4218 37.0074 33.4713 37.1156 33.4924C37.2237 33.5135 37.3356 33.5054 37.4396 33.469C37.5436 33.4326 37.6361 33.3692 37.7076 33.2853C37.779 33.2014 37.8268 33.1 37.8462 32.9915C37.8655 32.883 37.8556 32.7713 37.8175 32.6679C37.7893 32.5928 37.7838 32.511 37.8018 32.4328C37.8198 32.3546 37.8605 32.2835 37.9188 32.2283C37.9603 32.1893 38.0053 32.1478 38.0659 32.1019C38.7677 32.9214 39.6028 33.4467 40.6455 33.509V27.9491C39.267 27.8739 38.0659 26.9765 37.4861 25.8039ZM46.1249 28.5488C46.0997 28.5492 46.0746 28.5509 46.0496 28.554C45.9558 28.4886 45.8528 28.4373 45.7441 28.4017C45.5306 28.3347 45.3085 28.2988 45.0847 28.2953C45.0607 27.7185 44.9517 27.1484 44.7611 26.6035C44.9009 26.524 45.0328 26.4313 45.1548 26.3266C45.2776 26.2143 45.3786 26.0802 45.4525 25.9311C45.4872 25.8664 45.5406 25.8136 45.6057 25.7797C45.7113 25.7204 45.7972 25.6315 45.8529 25.5239C45.9086 25.4164 45.9317 25.2949 45.9193 25.1745C45.9069 25.054 45.8595 24.9398 45.7831 24.8459C45.7066 24.752 45.6044 24.6824 45.489 24.6458C45.3735 24.6092 45.2499 24.6072 45.1333 24.6399C45.0167 24.6726 44.9122 24.7387 44.8327 24.83C44.7532 24.9214 44.702 25.0339 44.6856 25.1539C44.6692 25.2739 44.6882 25.3961 44.7403 25.5054C44.7022 25.59 44.6447 25.6644 44.5725 25.7226C44.5239 25.7627 44.473 25.8 44.4202 25.8342C43.8404 27.0059 42.6401 27.8782 41.2634 27.9535V33.5185C42.3018 33.4562 43.142 32.9284 43.843 32.1115C43.8975 32.1547 43.9434 32.1937 43.9823 32.23C44.043 32.2863 44.0857 32.3593 44.1051 32.4398C44.1245 32.5204 44.1197 32.6048 44.0913 32.6826C44.0535 32.7859 44.0437 32.8974 44.0631 33.0057C44.0824 33.114 44.1302 33.2153 44.2015 33.2991C44.2728 33.3829 44.3651 33.4462 44.4689 33.4827C44.5727 33.5191 44.6843 33.5274 44.7924 33.5065C44.9004 33.4857 45.001 33.4365 45.0838 33.3641C45.1666 33.2916 45.2287 33.1985 45.2637 33.0942C45.2987 32.9899 45.3054 32.8781 45.2831 32.7704C45.2608 32.6627 45.2102 32.5628 45.1367 32.481C45.1144 32.4565 45.0901 32.4339 45.064 32.4135C45.0354 32.391 45.0147 32.378 45.0147 32.378C44.9195 32.0319 44.6945 31.7229 44.3224 31.4382C44.7353 30.7325 44.9879 29.9446 45.0622 29.1303C45.1135 29.1309 45.1646 29.1344 45.2154 29.1407C45.2891 29.1502 45.3589 29.1794 45.4175 29.225C45.4761 29.2707 45.5213 29.3312 45.5486 29.4003C45.6003 29.532 45.6953 29.6421 45.818 29.7124C45.9408 29.7828 46.0838 29.8091 46.2236 29.7871C46.3633 29.7651 46.4913 29.6961 46.5865 29.5915C46.6817 29.4868 46.7384 29.3529 46.7471 29.2117C46.7514 29.1269 46.7386 29.0421 46.7093 28.9624C46.6801 28.8827 46.6351 28.8098 46.577 28.7479C46.5189 28.686 46.4489 28.6365 46.3713 28.6023C46.2936 28.5681 46.2098 28.5499 46.1249 28.5488Z" fill="#FF9500"/>
    <path d="M59.6801 64.4876C59.6299 64.4079 59.5664 64.3373 59.4924 64.279C59.1142 63.9216 58.9385 63.3972 58.8451 62.8832C58.7516 62.3692 58.7248 61.8448 58.5751 61.342C58.4937 61.0842 58.3918 60.8333 58.2705 60.5918C58.184 60.4066 58.0749 60.044 57.9166 59.9142C57.8855 59.8873 57.8479 59.8691 57.8075 59.8614C57.7327 59.7024 57.6261 59.5605 57.4943 59.4443C57.2468 59.2202 56.9448 59.0419 56.7795 58.752C56.7341 58.6515 56.6781 58.556 56.6125 58.4673C56.5009 58.3444 56.3243 58.2942 56.2213 58.1644C56.0872 57.9966 56.1175 57.756 56.1348 57.5423C56.1521 57.3285 56.1348 57.0724 55.9496 56.9599C55.8389 56.8915 55.6961 56.8984 55.581 56.8379C55.4079 56.7513 55.3396 56.5333 55.343 56.3386C55.3465 56.1439 55.4071 55.9543 55.4226 55.7596C55.4711 55.1401 55.0626 54.5239 55.2201 53.9234C55.2798 53.6958 55.4166 53.4985 55.5178 53.2865C55.5531 53.2159 55.5821 53.1424 55.6043 53.0667C55.8744 53.1737 56.1581 53.2422 56.4472 53.27C55.9704 52.2005 56.0915 50.9578 55.8691 49.8086L55.8977 49.7697C56.1223 49.4734 56.2499 49.115 56.2629 48.7434C56.2629 48.3159 56.063 47.9161 55.973 47.4973C55.896 47.1416 55.8994 46.7695 55.7999 46.4199C55.7309 46.2027 55.6392 45.9933 55.5265 45.7951C55.4186 45.595 55.3052 45.3979 55.1864 45.2041C55.0756 44.8372 54.9646 44.4703 54.8532 44.1034C54.6975 43.5885 54.5374 43.065 54.2345 42.6202C54.1237 42.4575 54.09 42.1269 53.9195 42.0283C53.7811 41.9567 53.6241 41.9292 53.4695 41.9495C53.229 41.8145 53.0178 41.6198 52.9875 41.3533C52.9845 41.2951 52.9904 41.2367 53.0048 41.1802H53.0343C53.415 41.1456 53.608 40.8099 53.8062 40.5156C54.1263 40.0397 54.0043 39.3959 53.8062 38.8542C53.757 38.6832 53.6681 38.5263 53.5466 38.3964C53.2688 38.1368 52.8292 38.1939 52.4709 38.0684C52.3506 38.0269 52.2381 37.9637 52.1153 37.9343C51.8773 37.8789 51.6281 37.9568 51.41 38.0667C51.1919 38.1766 50.9886 38.3185 50.7601 38.4051C50.5317 38.4916 50.2496 38.56 50.1933 38.7945C50.1776 38.8735 50.1841 38.9553 50.2124 39.0307C50.2649 39.1812 50.3573 39.3146 50.4798 39.4167C50.3825 39.6172 50.3299 39.8365 50.3255 40.0593C50.3212 40.2822 50.3653 40.5033 50.4547 40.7075C50.5441 40.9117 50.6768 41.094 50.8435 41.242C51.0102 41.3899 51.207 41.4999 51.4204 41.5645C51.4862 41.67 51.5476 41.7773 51.6038 41.8872C51.7042 42.0811 51.789 42.3095 51.7544 42.5172C51.6918 42.5837 51.634 42.6546 51.5813 42.7292C51.333 43.0754 51.1919 43.4812 51.0621 43.8862C50.8878 44.4033 50.7481 44.9315 50.6442 45.4672C50.433 45.9163 50.1751 46.3455 50.022 46.8171C49.7477 46.8175 49.4747 46.7808 49.2103 46.7081L48.4799 46.5428C48.2255 46.4848 47.9607 46.4225 47.7617 46.2546C47.6561 46.1681 47.5739 46.053 47.4666 45.9674C47.3593 45.8817 47.1438 45.7813 47.0261 45.8523C47.0046 45.8653 46.9846 45.8807 46.9664 45.8981C46.8591 45.6809 46.757 45.4654 46.6324 45.2552C46.4533 44.961 46.1868 44.6918 45.8493 44.6356C45.6431 44.6024 45.4321 44.6515 45.2617 44.7723C45.0644 44.9125 44.9407 45.205 45.0886 45.4023C45.1256 45.4462 45.1658 45.4873 45.2089 45.5252C45.3091 45.6406 45.3986 45.7648 45.4763 45.8964C45.7552 46.2879 46.1725 46.5589 46.6437 46.6544L46.6134 46.741C46.5519 46.921 46.4213 47.1382 46.4541 47.3251L49.7027 48.4371C49.9111 48.5216 50.1322 48.5705 50.3569 48.5816C50.4445 48.5808 50.5317 48.5692 50.6165 48.547V48.7131V48.72C50.6251 49.8614 50.4434 50.995 50.4097 52.1356C50.4036 52.3441 50.4097 52.5682 50.5412 52.7309C50.6883 52.9092 50.9496 52.9447 51.1772 52.904C51.232 52.8948 51.2857 52.8826 51.3382 52.8676C51.4152 53.1548 51.4707 53.4472 51.5043 53.7425L51.7189 55.288C51.7465 55.4463 51.7579 55.6069 51.7527 55.7674C51.7276 56.13 51.5363 56.4545 51.3979 56.7894C51.2594 57.1243 51.1772 57.525 51.3589 57.8382C51.4161 57.9351 51.4948 58.0173 51.5459 58.1177C51.6108 58.2731 51.6403 58.441 51.6324 58.6092C51.6457 59.0754 51.6584 59.5421 51.6705 60.0094C51.6327 60.0032 51.594 60.0109 51.5614 60.031C51.3814 60.1712 51.4013 60.8384 51.3884 61.0452C51.3745 61.3913 51.3884 61.7444 51.3693 62.094C51.3468 62.5652 51.2711 63.0322 51.1435 63.4863C51.1123 63.634 51.0441 63.7712 50.9453 63.8853C50.8441 63.9733 50.7234 64.0359 50.5931 64.0679C50.162 64.2029 49.7112 64.2643 49.2596 64.2496C49.077 64.2435 48.8866 64.2262 48.717 64.2954C48.5474 64.3647 48.4107 64.5551 48.4721 64.7281C48.5249 64.8735 48.685 64.9427 48.8295 64.9972C49.1597 65.1135 49.4783 65.2601 49.7814 65.4351C49.8981 65.5146 50.0211 65.5843 50.1492 65.6437C50.272 65.6878 50.399 65.7191 50.5282 65.7371L52.0625 66.0019C52.3766 66.0556 52.7548 66.0884 52.9546 65.8288C53.0628 65.6887 53.0784 65.4983 53.0732 65.32C53.0645 64.9739 52.9953 64.6217 53.0403 64.2755C53.0745 64.0709 53.1284 63.8701 53.2013 63.6759C53.3542 63.2218 53.5076 62.7681 53.6616 62.3147C53.8157 61.8595 53.9714 61.4 54.0311 60.9223C54.0528 60.7492 54.051 60.5519 53.9186 60.4438C53.8852 60.4163 53.8462 60.3963 53.8044 60.3849C53.7992 59.9678 53.7447 59.5499 53.7681 59.1328C53.7741 59.0289 53.7845 58.9251 53.7932 58.8204C53.8734 58.8966 53.9451 58.9813 54.0069 59.0731C54.1549 59.305 54.2094 59.6113 54.4353 59.7653C54.6274 59.8969 54.9121 59.89 55.0471 60.0803C55.0904 60.1535 55.1231 60.2324 55.144 60.3148C55.2223 60.5189 55.3399 60.7056 55.4901 60.8643C55.5417 61.0543 55.6133 61.2382 55.7039 61.413C55.8314 61.6824 55.9583 61.9509 56.0846 62.2186C56.2145 62.5075 56.3589 62.7897 56.5173 63.0641C56.6382 63.2368 56.7357 63.4247 56.8072 63.6231C56.9292 64.0506 56.7302 64.5196 56.4152 64.8346C56.1002 65.1495 55.6848 65.3304 55.2755 65.4991C55.2324 65.5137 55.1929 65.5373 55.1596 65.5684C55.1241 65.6104 55.1053 65.664 55.1068 65.7189C55.1068 65.9188 55.2712 66.0902 55.4598 66.1516C55.6527 66.2034 55.8548 66.2108 56.0509 66.1733C57.1568 66.0391 58.2592 65.7691 59.2371 65.2318C59.3833 65.1624 59.5129 65.0624 59.617 64.9384C59.6672 64.876 59.6996 64.8011 59.7108 64.7217C59.7219 64.6423 59.7113 64.5614 59.6801 64.4876Z" fill="url(#paint0_linear_577_3136)"/>
    <path d="M55.0064 45.0823C55.191 45.3656 55.3641 45.6557 55.5256 45.9528C55.6388 46.1494 55.7307 46.3573 55.7999 46.5733C55.9003 46.9194 55.8977 47.2889 55.973 47.642C56.0595 48.0574 56.262 48.4537 56.262 48.8794C56.2488 49.2483 56.1212 49.604 55.8968 49.8971C55.6731 50.1877 55.4171 50.4519 55.1336 50.6846C54.4801 48.9917 54.1151 47.2013 54.0536 45.3878C54.045 45.1368 54.0433 44.8781 54.135 44.6436C54.1912 44.4965 54.4612 44.0932 54.6352 44.2516C54.6983 44.3095 54.7148 44.5709 54.7537 44.6583C54.8266 44.8061 54.9111 44.9478 55.0064 45.0823Z" fill="#2F2E41"/>
    <path opacity="0.1" d="M55.0064 45.0823C55.191 45.3656 55.3641 45.6557 55.5256 45.9528C55.6388 46.1494 55.7307 46.3573 55.7999 46.5733C55.9003 46.9194 55.8977 47.2889 55.973 47.642C56.0595 48.0574 56.262 48.4537 56.262 48.8794C56.2488 49.2483 56.1212 49.604 55.8968 49.8971C55.6731 50.1877 55.4171 50.4519 55.1336 50.6846C54.4801 48.9917 54.1151 47.2013 54.0536 45.3878C54.045 45.1368 54.0433 44.8781 54.135 44.6436C54.1912 44.4965 54.4612 44.0932 54.6352 44.2516C54.6983 44.3095 54.7148 44.5709 54.7537 44.6583C54.8266 44.8061 54.9111 44.9478 55.0064 45.0823Z" fill="black"/>
    <path d="M32.1924 33.2764C31.508 33.96 31.4257 34.2611 31.0147 34.397C30.6037 34.5329 29.1248 35.2987 29.5895 36.1476L30.839 36.9731L30.8754 36.9974L31.0666 37.572L29.1767 40.9364C29.1767 40.9364 26.0614 39.5121 25.756 41.6192C25.4505 43.7263 25.6443 44.3018 25.5621 45.4267C25.4799 46.5517 25.589 46.8771 25.3146 46.8771C25.0403 46.8771 24.9322 46.138 24.9322 46.138C24.9322 46.138 24.9149 46.1043 24.8846 46.0411C24.477 45.194 21.7105 38.9747 26.1419 34.6999C26.1419 34.6999 28.1945 34.5649 28.6886 32.2111C29.0296 30.5843 30.222 30.7245 31.0147 31.0559C31.2723 31.1569 31.5124 31.298 31.726 31.4738C31.9183 31.6558 32.0892 31.8591 32.2357 32.0796C32.4616 32.4361 32.5844 32.8835 32.1924 33.2764Z" fill="#D0D2D5"/>
    <path opacity="0.1" d="M30.8751 36.997L31.0663 37.5715L29.1764 40.936C29.1764 40.936 26.0611 39.5117 25.7557 41.6188C25.4502 43.7259 25.644 44.3014 25.5618 45.4263C25.4796 46.5513 25.5887 46.8766 25.3143 46.8766C25.04 46.8766 24.9319 46.1376 24.9319 46.1376C24.9319 46.1376 24.9146 46.1039 24.8843 46.0407C24.7467 44.9885 24.0492 38.8332 26.5778 39.1603C26.5778 39.1603 28.6295 40.1191 28.9575 39.7366C29.2171 39.4338 30.3697 37.6918 30.8387 36.9771L30.8751 36.997Z" fill="black"/>
    <path opacity="0.1" d="M32.2354 32.0741L30.9858 33.4941C30.9858 33.4941 29.5346 35.436 29.2335 35.3538C29.1433 35.3341 29.0514 35.3234 28.9591 35.3218C28.8587 35.3141 28.7625 35.2781 28.6816 35.2179C28.6008 35.1578 28.5387 35.076 28.5025 34.9819C28.4662 34.8879 28.4574 34.7856 28.4769 34.6867C28.4965 34.5879 28.5437 34.4967 28.613 34.4235C29.108 33.9043 30.0201 32.9187 30.0798 32.6998C30.1395 32.4808 30.7201 31.5212 31.0109 31.0513C31.2685 31.1523 31.5086 31.2933 31.7222 31.4692C31.9156 31.6508 32.0878 31.8537 32.2354 32.0741Z" fill="black"/>
    <path d="M67.5903 52.5044C67.3783 52.9284 66.2923 54.519 65.8172 55.2138L65.5948 55.5409C65.5948 55.5409 65.5083 56.1155 64.09 55.4033C62.6717 54.6912 29.3479 40.6301 29.3479 40.6301L29.1221 39.9517L30.7662 37.4897L67.29 51.601C67.29 51.601 67.8646 51.9567 67.5903 52.5044Z" fill="#454B69"/>
    <path opacity="0.1" d="M65.8172 55.2138L65.5948 55.5409C65.5948 55.5409 65.5083 56.1155 64.09 55.4033C62.6717 54.6912 29.3479 40.6301 29.3479 40.6301L29.1221 39.9517L65.8172 55.2138Z" fill="black"/>
    <path d="M45.7167 46.0287C45.3784 45.9733 45.0028 46.0001 44.7398 46.2199C44.5808 46.3545 44.4802 46.5457 44.4594 46.753C44.4369 46.9927 44.5762 47.2774 44.8168 47.2955C44.8747 47.2962 44.9325 47.2924 44.9899 47.2843C45.1418 47.2836 45.2936 47.2964 45.4433 47.3224C45.738 47.3501 46.0351 47.3067 46.3096 47.1959C46.5841 47.0851 46.828 46.91 47.0208 46.6855C47.2276 46.4259 46.9551 46.3134 46.711 46.2614C46.377 46.1905 46.0508 46.0823 45.7167 46.0287Z" fill="#BDA5A5"/>
    <path d="M51.5048 53.8439L51.7194 55.3687C51.7468 55.526 51.7578 55.6858 51.7523 55.8455C51.7272 56.2046 51.536 56.5265 51.3984 56.8588C51.2608 57.1911 51.1769 57.5891 51.3594 57.8972C51.4157 57.9933 51.4944 58.0755 51.5455 58.175C51.6104 58.3289 51.6399 58.4954 51.632 58.6622L51.6909 60.8256C52.3589 60.8711 53.0293 60.8674 53.6968 60.8143C53.7229 60.8155 53.7486 60.8076 53.7694 60.7918C53.7871 60.7694 53.796 60.7415 53.7945 60.7131C53.824 60.2068 53.7357 59.6997 53.7642 59.1935C53.7746 59.0083 53.8006 58.824 53.8041 58.638C53.8144 57.8842 53.4423 57.1461 53.5548 56.401C53.5902 56.213 53.6364 56.0272 53.6933 55.8446C54.0489 54.5466 53.9737 53.1828 53.8949 51.8424C53.8963 51.8208 53.8902 51.7994 53.8776 51.7818C53.8648 51.769 53.8486 51.7603 53.8309 51.7567C53.4523 51.6431 53.0519 51.6223 52.6636 51.6961C52.2753 51.7699 51.9105 51.9361 51.6 52.1807C51.5057 52.2569 51.2677 52.3304 51.2054 52.4213C51.1189 52.5476 51.2322 52.674 51.2824 52.8081C51.3936 53.1444 51.4682 53.4916 51.5048 53.8439Z" fill="#3F3D56"/>
    <path opacity="0.1" d="M51.5048 53.8439L51.7194 55.3687C51.7468 55.526 51.7578 55.6858 51.7523 55.8455C51.7272 56.2046 51.536 56.5265 51.3984 56.8588C51.2608 57.1911 51.1769 57.5891 51.3594 57.8972C51.4157 57.9933 51.4944 58.0755 51.5455 58.175C51.6104 58.3289 51.6399 58.4954 51.632 58.6622L51.6909 60.8256C52.3589 60.8711 53.0293 60.8674 53.6968 60.8143C53.7229 60.8155 53.7486 60.8076 53.7694 60.7918C53.7871 60.7694 53.796 60.7415 53.7945 60.7131C53.824 60.2068 53.7357 59.6997 53.7642 59.1935C53.7746 59.0083 53.8006 58.824 53.8041 58.638C53.8144 57.8842 53.4423 57.1461 53.5548 56.401C53.5902 56.213 53.6364 56.0272 53.6933 55.8446C54.0489 54.5466 53.9737 53.1828 53.8949 51.8424C53.8963 51.8208 53.8902 51.7994 53.8776 51.7818C53.8648 51.769 53.8486 51.7603 53.8309 51.7567C53.4523 51.6431 53.0519 51.6223 52.6636 51.6961C52.2753 51.7699 51.9105 51.9361 51.6 52.1807C51.5057 52.2569 51.2677 52.3304 51.2054 52.4213C51.1189 52.5476 51.2322 52.674 51.2824 52.8081C51.3936 53.1444 51.4682 53.4916 51.5048 53.8439Z" fill="black"/>
    <path d="M55.5169 53.3841C55.4157 53.5944 55.2798 53.7899 55.2193 54.0158C55.0618 54.612 55.4694 55.2273 55.4209 55.8382C55.4053 56.0312 55.3456 56.219 55.3413 56.4119C55.337 56.6049 55.4079 56.8195 55.5793 56.9086C55.6943 56.9675 55.8389 56.9614 55.947 57.0289C56.1296 57.1406 56.1504 57.3941 56.1322 57.607C56.114 57.8199 56.0838 58.0578 56.2187 58.224C56.3217 58.3529 56.4983 58.4031 56.609 58.5251C56.6749 58.6127 56.7309 58.7073 56.776 58.8072C56.9413 59.0962 57.2433 59.2728 57.4908 59.4995C57.7383 59.7262 57.9477 60.0585 57.8369 60.3726C57.7556 60.6028 57.5272 60.7447 57.3074 60.8529C56.9063 61.0511 56.4831 61.2007 56.0465 61.2986C55.9997 61.3127 55.9501 61.3154 55.902 61.3063C55.8533 61.2886 55.8099 61.2588 55.7757 61.2198C55.5204 60.9697 55.2565 60.7075 55.1388 60.3709C55.1179 60.2893 55.0852 60.2112 55.0419 60.139C54.9069 59.9495 54.6222 59.9564 54.4301 59.8257C54.2051 59.6726 54.1506 59.3688 54.0035 59.1395C53.8563 58.9102 53.6409 58.7735 53.4842 58.5718C53.2194 58.2361 53.1545 57.7878 52.965 57.4045C52.8846 57.2418 52.7816 57.0895 52.7175 56.9199C52.6529 56.7166 52.6131 56.5062 52.599 56.2934C52.477 55.2826 52.1663 54.265 52.3619 53.2647C52.4052 53.0449 52.4718 52.832 52.4995 52.6053C52.5471 52.2133 52.4718 51.8117 52.5298 51.4206C52.5312 51.3715 52.5437 51.3233 52.5663 51.2797C52.5889 51.2361 52.6211 51.1982 52.6604 51.1688C52.7072 51.1478 52.758 51.1374 52.8093 51.1385C53.3223 51.1111 53.8366 51.1226 54.3479 51.1731C54.6075 51.1982 54.8982 51.251 55.054 51.463C55.1864 51.6447 55.1795 51.8879 55.2219 52.1085C55.2747 52.3803 55.4122 52.5282 55.5568 52.7411C55.7013 52.954 55.6234 53.1643 55.5169 53.3841Z" fill="#3F3D56"/>
    <path d="M53.5211 60.4161C53.6578 60.4161 53.8093 60.4075 53.9148 60.494C54.0464 60.6022 54.0481 60.8004 54.0273 60.9691C53.9668 61.4433 53.8119 61.8994 53.657 62.3537L53.1966 63.7045C53.1237 63.8972 53.0698 64.0966 53.0356 64.2998C52.9906 64.646 53.0599 64.9921 53.0685 65.3383C53.0685 65.5113 53.0573 65.7034 52.9491 65.8427C52.7535 66.0946 52.3719 66.0651 52.0578 66.0158L50.5253 65.7562C50.396 65.739 50.2689 65.708 50.1462 65.6636C50.0183 65.6046 49.8954 65.5354 49.7785 65.4568C49.4752 65.2835 49.1565 65.1387 48.8266 65.0241C48.6829 64.9705 48.522 64.9021 48.47 64.7576C48.4086 64.5845 48.5453 64.3942 48.7149 64.3249C48.8846 64.2557 49.0741 64.273 49.2575 64.2782C49.7086 64.2926 50.159 64.2317 50.5902 64.0982C50.72 64.0664 50.8404 64.0041 50.9415 63.9165C51.0441 63.8011 51.1141 63.6604 51.144 63.5089C51.2746 63.0579 51.3524 62.5933 51.3759 62.1243C51.3941 61.7782 51.3819 61.4321 51.3958 61.0859C51.4044 60.8808 51.3845 60.2206 51.5645 60.0795C51.7021 59.9739 52.2681 60.2656 52.4541 60.308C52.8039 60.3881 53.1623 60.4245 53.5211 60.4161Z" fill="#2F2E41"/>
    <path d="M58.569 61.3785C58.7187 61.8744 58.7421 62.3988 58.839 62.9085C58.9359 63.4182 59.1073 63.9382 59.4854 64.293C59.559 64.3515 59.6225 64.4216 59.6732 64.5007C59.7051 64.5748 59.716 64.6563 59.7045 64.7361C59.6931 64.816 59.6598 64.8912 59.6083 64.9533C59.5038 65.0764 59.3743 65.1758 59.2284 65.2449C58.2514 65.778 57.1516 66.0471 56.0431 66.1804C55.8472 66.217 55.6456 66.2097 55.4529 66.1587C55.2643 66.0947 55.0972 65.9251 55.1007 65.726C55.0989 65.6714 55.1174 65.6181 55.1526 65.5763C55.1863 65.5456 55.2261 65.5222 55.2695 65.508C55.6779 65.3401 56.0924 65.1575 56.4083 64.8477C56.7241 64.5379 56.9223 64.0689 56.8003 63.6483C56.728 63.4514 56.6299 63.2648 56.5086 63.0937C56.3504 62.8216 56.206 62.5417 56.076 62.2551L55.6952 61.4564C55.5836 61.2228 55.4711 60.9822 55.452 60.7243C55.9303 60.7458 56.408 60.6692 56.8556 60.4993C57.0646 60.4141 57.2593 60.2974 57.4328 60.1532C57.5799 60.0303 57.7141 59.801 57.9122 59.9611C58.0715 60.0892 58.1718 60.45 58.2653 60.6326C58.3867 60.8725 58.4883 61.122 58.569 61.3785Z" fill="#2F2E41"/>
    <path d="M52.9894 41.5457C53.0274 41.878 53.3494 42.0969 53.6566 42.2284L51.7121 42.8489C51.8376 42.6083 51.7363 42.3141 51.6117 42.0701C51.5102 41.8768 51.3945 41.6914 51.2656 41.5154C51.2466 41.4885 51.2249 41.4548 51.2388 41.4236C51.2511 41.4033 51.2705 41.3882 51.2933 41.3812C51.6931 41.203 52.105 41.0187 52.542 40.9538C52.6683 40.9356 52.9072 40.8854 53.0015 41.0135C53.0958 41.1415 52.9712 41.3925 52.9894 41.5457Z" fill="#C5B1B1"/>
    <path opacity="0.1" d="M52.9894 41.5457C53.0274 41.878 53.3494 42.0969 53.6566 42.2284L51.7121 42.8489C51.8376 42.6083 51.7363 42.3141 51.6117 42.0701C51.5102 41.8768 51.3945 41.6914 51.2656 41.5154C51.2466 41.4885 51.2249 41.4548 51.2388 41.4236C51.2511 41.4033 51.2705 41.3882 51.2933 41.3812C51.6931 41.203 52.105 41.0187 52.542 40.9538C52.6683 40.9356 52.9072 40.8854 53.0015 41.0135C53.0958 41.1415 52.9712 41.3925 52.9894 41.5457Z" fill="black"/>
    <path d="M51.8597 41.8146C52.7018 41.8146 53.3845 41.132 53.3845 40.2899C53.3845 39.4478 52.7018 38.7651 51.8597 38.7651C51.0176 38.7651 50.335 39.4478 50.335 40.2899C50.335 41.132 51.0176 41.8146 51.8597 41.8146Z" fill="#BDA5A5"/>
    <path d="M50.5377 52.8375C50.6857 53.0149 50.9461 53.0495 51.1737 53.0106C51.7059 52.924 52.1412 52.532 52.6621 52.391C53.3008 52.2179 53.9766 52.4403 54.5798 52.7129C55.1829 52.9855 55.7826 53.3186 56.442 53.3654C55.8458 52.0362 56.1867 50.437 55.6164 49.0966C55.4771 48.7686 55.2824 48.4528 55.2513 48.098C55.2123 47.6575 55.4321 47.2326 55.4659 46.7948C55.497 46.4045 55.3793 46.016 55.2668 45.6439C55.1278 45.187 54.9888 44.7301 54.8497 44.2732C54.694 43.7617 54.5339 43.2417 54.2319 42.8021C54.1203 42.6402 54.0865 42.3123 53.9169 42.2145C53.5465 42.0007 52.9849 42.2699 52.5834 42.2846C52.1819 42.2993 51.8158 42.5849 51.5813 42.9076C51.333 43.2486 51.1919 43.6544 51.0621 44.056C50.8554 44.6538 50.7011 45.2685 50.6009 45.8931C50.5879 45.9865 50.5766 46.08 50.568 46.1743C50.4815 47.063 50.6078 47.9569 50.6147 48.85V48.856C50.6234 49.9888 50.4417 51.1146 50.4079 52.2465C50.4044 52.4533 50.4096 52.6792 50.5377 52.8375Z" fill="#2F2E41"/>
    <path opacity="0.1" d="M50.6176 48.8509C50.9161 48.7756 51.1861 48.5826 51.418 48.3715C51.6189 48.1917 51.7973 47.9883 51.9493 47.7658C52.1408 47.4665 52.2945 47.1448 52.4071 46.8078C52.7275 45.9067 52.9311 44.9682 53.0129 44.0153C53.0354 43.7557 53.0423 43.4771 52.8874 43.2711C52.8004 43.1596 52.6783 43.0807 52.5408 43.0474C52.4033 43.0141 52.2586 43.0283 52.1302 43.0877C51.926 43.1872 51.7936 43.3888 51.6707 43.5818C51.4275 43.9643 51.1826 44.352 51.026 44.7777C50.9568 44.9664 50.9057 45.1602 50.8382 45.3497C50.7696 45.5366 50.6904 45.7195 50.6011 45.8975C50.5881 45.9909 50.5769 46.0844 50.5682 46.1787C50.4878 47.0674 50.6106 47.9579 50.6176 48.8509Z" fill="black"/>
    <path d="M52.8828 43.1039C53.0377 43.3099 53.0308 43.5911 53.0092 43.8473C52.9275 44.8002 52.724 45.7387 52.4034 46.6397C52.2918 46.9795 52.138 47.304 51.9456 47.6055C51.7933 47.8278 51.6149 48.0312 51.4143 48.2112C51.1201 48.4795 50.7618 48.7192 50.3629 48.7226C50.1384 48.7121 49.9172 48.6638 49.7087 48.5799L46.4593 47.4739C46.4264 47.2888 46.5571 47.0724 46.6186 46.8942L46.7916 46.381C46.8409 46.2391 46.8981 46.0859 47.027 46.0089C47.1559 45.9319 47.3602 46.0375 47.4675 46.1231C47.5748 46.2088 47.6561 46.3213 47.7617 46.4087C47.9616 46.5748 48.2255 46.6371 48.4799 46.6943L49.2094 46.8578C49.4739 46.9302 49.7469 46.9666 50.0211 46.966C50.2245 46.3447 50.6113 45.7978 50.8302 45.1816C50.8977 44.993 50.9488 44.7983 51.0189 44.6096C51.1746 44.1839 51.4204 43.7971 51.6635 43.4137C51.7856 43.2216 51.918 43.02 52.123 42.9196C52.2518 42.8595 52.3972 42.845 52.5353 42.8785C52.6734 42.912 52.7959 42.9915 52.8828 43.1039Z" fill="#2F2E41"/>
    <path d="M52.3457 40.6341C52.3342 40.5339 52.303 40.4368 52.254 40.3486C52.2285 40.3044 52.1896 40.2695 52.1429 40.249C52.0962 40.2284 52.0442 40.2233 51.9944 40.2344C51.8421 40.2819 51.791 40.5173 51.6318 40.5251C51.5245 40.5303 51.4475 40.4213 51.4137 40.3192C51.38 40.217 51.3618 40.1002 51.2813 40.0284C51.2253 39.9865 51.161 39.957 51.0927 39.9419C50.7232 39.825 50.3416 39.6096 50.2187 39.2418C50.1898 39.1671 50.1829 39.0858 50.1988 39.0073C50.255 38.7745 50.5449 38.7044 50.7656 38.6205C50.9863 38.5365 51.1983 38.3929 51.4146 38.2839C51.6309 38.1748 51.8819 38.0978 52.1199 38.1532C52.2406 38.1912 52.3593 38.2354 52.4755 38.2856C52.8338 38.4102 53.2725 38.3522 53.5503 38.611C53.6717 38.7393 53.7607 38.8948 53.8099 39.0644C54.0037 39.6026 54.1266 40.2413 53.8056 40.7138C53.6074 41.0054 53.4153 41.3385 53.0345 41.374C52.5915 41.4112 52.4158 41.0097 52.3457 40.6341Z" fill="#2F2E41"/>
    <g opacity="0.1">
      <path d="M51.6685 40.1356C51.6347 40.0334 51.6166 39.9166 51.537 39.8448C51.4809 39.8029 51.4166 39.7734 51.3483 39.7583C50.9779 39.6414 50.5972 39.426 50.4734 39.0582C50.4452 38.9834 50.4386 38.9021 50.4544 38.8237C50.4629 38.7867 50.4785 38.7517 50.5003 38.7207C50.3592 38.7821 50.2363 38.8635 50.2017 39.0071C50.1858 39.0856 50.1927 39.167 50.2216 39.2416C50.3445 39.6094 50.7261 39.8249 51.0956 39.9417C51.1639 39.9568 51.2282 39.9863 51.2843 40.0282C51.3647 40.1001 51.3821 40.216 51.4167 40.319C51.4513 40.422 51.5274 40.5302 51.6347 40.525C51.742 40.5198 51.794 40.422 51.8623 40.3398C51.768 40.3277 51.6996 40.2307 51.6685 40.1356Z" fill="black"/>
      <path d="M53.2883 41.1876C52.8435 41.2282 52.6678 40.8233 52.596 40.4503C52.5865 40.3503 52.557 40.2532 52.5094 40.1647C52.4838 40.1206 52.4449 40.0858 52.3983 40.0653C52.3516 40.0448 52.2996 40.0396 52.2498 40.0505C52.1709 40.0888 52.1045 40.1488 52.0586 40.2236C52.0983 40.2274 52.1366 40.2403 52.1705 40.2613C52.2044 40.2823 52.2331 40.3109 52.2542 40.3447C52.3032 40.433 52.3343 40.53 52.3459 40.6303C52.416 41.0033 52.5916 41.4091 53.0382 41.3676C53.2147 41.3481 53.3776 41.2636 53.4951 41.1305C53.4298 41.1609 53.3599 41.1802 53.2883 41.1876Z" fill="black"/>
    </g>
    <path d="M71.1126 57.2852C72.6558 57.2852 73.9068 57.0446 73.9068 56.7478C73.9068 56.451 72.6558 56.2104 71.1126 56.2104C69.5694 56.2104 68.3184 56.451 68.3184 56.7478C68.3184 57.0446 69.5694 57.2852 71.1126 57.2852Z" fill="#FF9500"/>
    <path d="M71.0656 56.9453C71.2453 56.9453 71.391 56.7546 71.391 56.5195C71.391 56.2844 71.2453 56.0938 71.0656 56.0938C70.8859 56.0938 70.7402 56.2844 70.7402 56.5195C70.7402 56.7546 70.8859 56.9453 71.0656 56.9453Z" fill="#3F3D56"/>
    <path d="M71.0656 56.4243C71.2453 56.4243 71.391 56.2336 71.391 55.9985C71.391 55.7634 71.2453 55.5728 71.0656 55.5728C70.8859 55.5728 70.7402 55.7634 70.7402 55.9985C70.7402 56.2336 70.8859 56.4243 71.0656 56.4243Z" fill="#3F3D56"/>
    <path d="M71.0656 55.9042C71.2453 55.9042 71.391 55.7136 71.391 55.4785C71.391 55.2433 71.2453 55.0527 71.0656 55.0527C70.8859 55.0527 70.7402 55.2433 70.7402 55.4785C70.7402 55.7136 70.8859 55.9042 71.0656 55.9042Z" fill="#3F3D56"/>
    <path d="M71.0656 55.3832C71.2453 55.3832 71.391 55.1926 71.391 54.9575C71.391 54.7224 71.2453 54.5317 71.0656 54.5317C70.8859 54.5317 70.7402 54.7224 70.7402 54.9575C70.7402 55.1926 70.8859 55.3832 71.0656 55.3832Z" fill="#3F3D56"/>
    <path d="M71.0656 54.8622C71.2453 54.8622 71.391 54.6716 71.391 54.4365C71.391 54.2014 71.2453 54.0107 71.0656 54.0107C70.8859 54.0107 70.7402 54.2014 70.7402 54.4365C70.7402 54.6716 70.8859 54.8622 71.0656 54.8622Z" fill="#3F3D56"/>
    <path d="M71.0656 54.3422C71.2453 54.3422 71.391 54.1516 71.391 53.9165C71.391 53.6813 71.2453 53.4907 71.0656 53.4907C70.8859 53.4907 70.7402 53.6813 70.7402 53.9165C70.7402 54.1516 70.8859 54.3422 71.0656 54.3422Z" fill="#3F3D56"/>
    <path d="M71.0656 53.8212C71.2453 53.8212 71.391 53.6306 71.391 53.3955C71.391 53.1603 71.2453 52.9697 71.0656 52.9697C70.8859 52.9697 70.7402 53.1603 70.7402 53.3955C70.7402 53.6306 70.8859 53.8212 71.0656 53.8212Z" fill="#3F3D56"/>
    <path d="M72.2835 49.8362C72.3279 49.7796 72.3683 49.72 72.4046 49.6579L71.5496 49.5177L72.4747 49.5238C72.563 49.3307 72.6111 49.1216 72.6162 48.9094C72.6213 48.6971 72.5831 48.486 72.5041 48.2889L71.2632 48.9327L72.4072 48.0916C72.2999 47.9068 72.1556 47.7461 71.9835 47.6195C71.8114 47.4928 71.6151 47.4029 71.4067 47.3554C71.1984 47.3079 70.9825 47.3037 70.7725 47.3432C70.5624 47.3827 70.3628 47.465 70.186 47.585C70.0091 47.705 69.8588 47.86 69.7445 48.0406C69.6301 48.2211 69.5542 48.4232 69.5213 48.6344C69.4884 48.8455 69.4993 49.0612 69.5533 49.2679C69.6074 49.4747 69.7034 49.6681 69.8354 49.8362C69.7659 49.924 69.7061 50.0192 69.6571 50.12L70.7674 50.6972L69.5836 50.3C69.5009 50.5452 69.4806 50.8072 69.5246 51.0622C69.5686 51.3172 69.6754 51.5573 69.8354 51.7607C69.6549 51.9905 69.5426 52.2665 69.5115 52.557C69.4804 52.8476 69.5317 53.141 69.6594 53.4039C69.7872 53.6667 69.9863 53.8883 70.234 54.0433C70.4817 54.1983 70.7681 54.2805 71.0603 54.2805C71.3525 54.2805 71.6389 54.1983 71.8866 54.0433C72.1343 53.8883 72.3334 53.6667 72.4612 53.4039C72.5889 53.141 72.6402 52.8476 72.6091 52.557C72.5779 52.2665 72.4657 51.9905 72.2852 51.7607C72.5014 51.4861 72.619 51.1467 72.619 50.7971C72.619 50.4476 72.5014 50.1082 72.2852 49.8336L72.2835 49.8362Z" fill="#FF9500"/>
    <path opacity="0.1" d="M69.499 50.7969C69.4989 51.1469 69.6172 51.4867 69.8348 51.7609C69.6543 51.9907 69.542 52.2666 69.5109 52.5572C69.4798 52.8478 69.531 53.1412 69.6588 53.404C69.7866 53.6669 69.9857 53.8884 70.2334 54.0435C70.4811 54.1985 70.7675 54.2807 71.0597 54.2807C71.3519 54.2807 71.6382 54.1985 71.886 54.0435C72.1337 53.8884 72.3328 53.6669 72.4606 53.404C72.5883 53.1412 72.6396 52.8478 72.6085 52.5572C72.5773 52.2666 72.4651 51.9907 72.2846 51.7609C72.4914 51.4952 69.499 50.6221 69.499 50.7969Z" fill="black"/>
    <path d="M13.5933 67.9999C15.8152 67.9999 17.6163 67.6535 17.6163 67.2263C17.6163 66.799 15.8152 66.4526 13.5933 66.4526C11.3715 66.4526 9.57031 66.799 9.57031 67.2263C9.57031 67.6535 11.3715 67.9999 13.5933 67.9999Z" fill="#FF9500"/>
    <path d="M13.5258 67.5112C13.7843 67.5112 13.9939 67.2366 13.9939 66.8977C13.9939 66.5589 13.7843 66.2842 13.5258 66.2842C13.2672 66.2842 13.0576 66.5589 13.0576 66.8977C13.0576 67.2366 13.2672 67.5112 13.5258 67.5112Z" fill="#3F3D56"/>
    <path d="M13.5258 66.7617C13.7843 66.7617 13.9939 66.487 13.9939 66.1482C13.9939 65.8094 13.7843 65.5347 13.5258 65.5347C13.2672 65.5347 13.0576 65.8094 13.0576 66.1482C13.0576 66.487 13.2672 66.7617 13.5258 66.7617Z" fill="#3F3D56"/>
    <path d="M13.5258 66.0122C13.7843 66.0122 13.9939 65.7375 13.9939 65.3987C13.9939 65.0598 13.7843 64.7852 13.5258 64.7852C13.2672 64.7852 13.0576 65.0598 13.0576 65.3987C13.0576 65.7375 13.2672 66.0122 13.5258 66.0122Z" fill="#3F3D56"/>
    <path d="M13.5258 65.2627C13.7843 65.2627 13.9939 64.988 13.9939 64.6492C13.9939 64.3103 13.7843 64.0356 13.5258 64.0356C13.2672 64.0356 13.0576 64.3103 13.0576 64.6492C13.0576 64.988 13.2672 65.2627 13.5258 65.2627Z" fill="#3F3D56"/>
    <path d="M13.5258 64.5137C13.7843 64.5137 13.9939 64.239 13.9939 63.9002C13.9939 63.5613 13.7843 63.2866 13.5258 63.2866C13.2672 63.2866 13.0576 63.5613 13.0576 63.9002C13.0576 64.239 13.2672 64.5137 13.5258 64.5137Z" fill="#3F3D56"/>
    <path d="M13.5258 63.7632C13.7843 63.7632 13.9939 63.4885 13.9939 63.1497C13.9939 62.8108 13.7843 62.5361 13.5258 62.5361C13.2672 62.5361 13.0576 62.8108 13.0576 63.1497C13.0576 63.4885 13.2672 63.7632 13.5258 63.7632Z" fill="#3F3D56"/>
    <path d="M13.5258 63.0137C13.7843 63.0137 13.9939 62.739 13.9939 62.4002C13.9939 62.0613 13.7843 61.7866 13.5258 61.7866C13.2672 61.7866 13.0576 62.0613 13.0576 62.4002C13.0576 62.739 13.2672 63.0137 13.5258 63.0137Z" fill="#3F3D56"/>
    <path d="M15.2787 57.2722C15.3421 57.1896 15.3999 57.1029 15.4518 57.0126L14.2213 56.8101L15.5522 56.8205C15.6798 56.5425 15.7493 56.2415 15.7566 55.9357C15.7639 55.63 15.7088 55.3259 15.5946 55.0422L13.8103 55.9716L15.4544 54.7601C15.3005 54.493 15.0931 54.2604 14.8453 54.077C14.5974 53.8936 14.3144 53.7632 14.014 53.694C13.7135 53.6248 13.402 53.6182 13.0989 53.6748C12.7958 53.7313 12.5076 53.8497 12.2523 54.0226C11.997 54.1954 11.78 54.4191 11.615 54.6795C11.45 54.94 11.3404 55.2316 11.2931 55.5363C11.2458 55.841 11.2617 56.1521 11.34 56.4504C11.4183 56.7486 11.5573 57.0275 11.7481 57.2696C11.6471 57.396 11.56 57.5329 11.4885 57.6781L13.0868 58.5088L11.3829 57.9368C11.2635 58.2914 11.2347 58.6703 11.2991 59.0389C11.3635 59.4076 11.519 59.7542 11.7516 60.0474C11.4912 60.3784 11.3293 60.7759 11.2842 61.1946C11.2391 61.6133 11.3128 62.0362 11.4968 62.415C11.6808 62.7938 11.9676 63.1132 12.3245 63.3366C12.6815 63.5601 13.0941 63.6786 13.5152 63.6786C13.9363 63.6786 14.3489 63.5601 14.7058 63.3366C15.0627 63.1132 15.3496 62.7938 15.5336 62.415C15.7175 62.0362 15.7912 61.6133 15.7461 61.1946C15.7011 60.7759 15.5391 60.3784 15.2787 60.0474C15.5899 59.652 15.7591 59.1634 15.7591 58.6602C15.7591 58.1571 15.5899 57.6685 15.2787 57.2731V57.2722Z" fill="#FF9500"/>
    <path opacity="0.1" d="M11.2715 58.6628C11.2716 59.1652 11.4407 59.6529 11.7518 60.0474C11.4914 60.3783 11.3294 60.7759 11.2844 61.1946C11.2393 61.6133 11.313 62.0362 11.4969 62.415C11.6809 62.7938 11.9678 63.1131 12.3247 63.3366C12.6816 63.56 13.0942 63.6785 13.5153 63.6785C13.9364 63.6785 14.349 63.56 14.706 63.3366C15.0629 63.1131 15.3498 62.7938 15.5337 62.415C15.7177 62.0362 15.7914 61.6133 15.7463 61.1946C15.7012 60.7759 15.5393 60.3783 15.2789 60.0474C15.5775 59.6649 11.2715 58.4075 11.2715 58.6628Z" fill="black"/>
  </g>
  <defs>
    <linearGradient id="paint0_linear_577_3136" x1="52.8337" y1="66.3157" x2="51.6883" y2="37.9216" gradientUnits="userSpaceOnUse">
      <stop stop-color="#808080" stop-opacity="0.25"/>
      <stop offset="0.54" stop-color="#808080" stop-opacity="0.12"/>
      <stop offset="1" stop-color="#808080" stop-opacity="0.1"/>
    </linearGradient>
    <clipPath id="clip0_577_3136">
      <rect width="88.4993" height="68" fill="white" transform="translate(0.75)"/>
    </clipPath>
  </defs>
</svg>
