<svg xmlns="http://www.w3.org/2000/svg" width="16" height="16" fill="none" viewBox="0 0 16 16">
    <path stroke="#8B95A5" stroke-linecap="round" stroke-linejoin="round" stroke-width="2" d="M14.666 11.28v2c.001.186-.037.37-.111.54-.075.17-.184.322-.32.448-.137.125-.299.221-.475.28-.176.06-.362.082-.547.065-2.051-.223-4.022-.924-5.753-2.046-1.611-1.024-2.977-2.39-4-4-1.127-1.74-1.828-3.72-2.047-5.78-.017-.185.005-.37.064-.546.06-.175.155-.337.28-.473.124-.137.276-.246.445-.321.17-.075.353-.114.538-.114h2c.323-.003.637.112.882.323.246.21.406.504.451.824.085.64.241 1.268.467 1.873.09.239.109.498.056.748-.053.249-.177.478-.356.659l-.847.847c.95 1.669 2.331 3.05 4 4l.847-.847c.181-.18.41-.303.66-.356.248-.053.508-.034.746.056.605.226 1.234.382 1.874.467.324.045.62.209.83.458.212.25.325.568.316.895z"/>
</svg>
