<svg xmlns="http://www.w3.org/2000/svg" width="122" height="30" fill="none" viewBox="0 0 122 30">
    <path fill="#C6DFEB" d="M63.968 24V6.912h1.968v4.656l-.072 2.4c.56-.528 1.144-.976 1.752-1.344.608-.384 1.32-.576 2.136-.576 1.232 0 2.128.384 2.688 1.152.576.768.864 1.904.864 3.408V24h-1.968v-7.128c0-1.104-.176-1.896-.528-2.376-.352-.496-.912-.744-1.68-.744-.608 0-1.144.152-1.608.456-.464.304-.992.752-1.584 1.344V24h-1.968zm16.823.288c-.784 0-1.52-.136-2.208-.408-.672-.288-1.264-.688-1.776-1.2-.496-.528-.888-1.168-1.176-1.92-.288-.752-.432-1.608-.432-2.568s.144-1.816.432-2.568c.304-.768.696-1.416 1.176-1.944.496-.528 1.056-.928 1.68-1.2.624-.288 1.272-.432 1.944-.432.736 0 1.392.128 1.968.384.592.256 1.08.624 1.464 1.104.4.48.704 1.056.912 1.728.208.672.312 1.424.312 2.256 0 .208-.008.416-.024.624 0 .192-.016.36-.048.504h-7.872c.08 1.248.464 2.24 1.152 2.976.704.72 1.616 1.08 2.736 1.08.56 0 1.072-.08 1.536-.24.48-.176.936-.4 1.368-.672l.696 1.296c-.512.32-1.08.6-1.704.84-.624.24-1.336.36-2.136.36zm-3.672-7.056h6.24c0-1.184-.256-2.08-.768-2.688-.496-.624-1.2-.936-2.112-.936-.416 0-.816.08-1.2.24-.368.16-.704.4-1.008.72-.304.304-.56.68-.768 1.128-.192.448-.32.96-.384 1.536zm12.25 7.056c-.976 0-1.792-.288-2.448-.864-.64-.576-.96-1.392-.96-2.448 0-1.28.568-2.256 1.704-2.928 1.136-.688 2.952-1.168 5.448-1.44 0-.368-.04-.728-.12-1.08-.064-.352-.184-.664-.36-.936s-.424-.488-.744-.648c-.304-.176-.696-.264-1.176-.264-.672 0-1.304.128-1.896.384-.592.256-1.12.544-1.584.864l-.768-1.368c.544-.352 1.208-.688 1.992-1.008.784-.336 1.648-.504 2.592-.504 1.424 0 2.456.44 3.096 1.32.64.864.96 2.024.96 3.48V24h-1.632l-.168-1.392h-.072c-.56.464-1.16.864-1.8 1.2-.64.32-1.328.48-2.064.48zm.576-1.584c.56 0 1.088-.128 1.584-.384.496-.272 1.024-.664 1.584-1.176v-3.24c-.976.128-1.8.28-2.472.456-.656.176-1.192.384-1.608.624-.4.24-.696.52-.888.84-.176.304-.264.64-.264 1.008 0 .672.2 1.152.6 1.44.4.288.888.432 1.464.432zm9.958 1.584c-.752 0-1.288-.224-1.608-.672-.32-.448-.48-1.104-.48-1.968V6.912h1.968v14.88c0 .32.056.544.168.672.112.128.24.192.384.192h.168c.064 0 .152-.016.264-.048l.264 1.488c-.128.064-.28.112-.456.144-.176.032-.4.048-.672.048zm6.741 0c-.624 0-1.152-.096-1.584-.288-.416-.192-.76-.456-1.032-.792-.256-.336-.44-.744-.552-1.224-.112-.48-.168-1.008-.168-1.584v-6.456h-1.728v-1.488l1.824-.12.24-3.264h1.656v3.264h3.144v1.608H105.3v6.48c0 .72.128 1.28.384 1.68.272.384.744.576 1.416.576.208 0 .432-.032.672-.096.24-.064.456-.136.648-.216l.384 1.488c-.32.112-.672.208-1.056.288-.368.096-.736.144-1.104.144zm3.477-.288V6.912h1.968v4.656l-.072 2.4c.56-.528 1.144-.976 1.752-1.344.608-.384 1.32-.576 2.136-.576 1.232 0 2.128.384 2.688 1.152.576.768.864 1.904.864 3.408V24h-1.968v-7.128c0-1.104-.176-1.896-.528-2.376-.352-.496-.912-.744-1.68-.744-.608 0-1.144.152-1.608.456-.464.304-.992.752-1.584 1.344V24h-1.968z"/>
    <path fill="#fff" d="M4.608 24.288c-1.04 0-1.88-.312-2.52-.936-.64-.64-.96-1.48-.96-2.52 0-.624.128-1.176.384-1.656.272-.496.688-.92 1.248-1.272.576-.352 1.296-.648 2.16-.888.88-.24 1.928-.424 3.144-.552-.016-.304-.064-.592-.144-.864-.064-.288-.184-.536-.36-.744-.16-.224-.376-.392-.648-.504-.272-.128-.608-.192-1.008-.192-.576 0-1.144.112-1.704.336-.544.224-1.08.496-1.608.816l-1.008-1.848c.656-.416 1.392-.776 2.208-1.08.816-.304 1.696-.456 2.64-.456 1.472 0 2.568.44 3.288 1.32.736.864 1.104 2.12 1.104 3.768V24h-2.28l-.192-1.296h-.096c-.528.448-1.096.824-1.704 1.128-.592.304-1.24.456-1.944.456zm.888-2.16c.48 0 .912-.112 1.296-.336.4-.224.824-.544 1.272-.96v-2.64c-.8.096-1.472.224-2.016.384s-.984.344-1.32.552c-.336.192-.576.416-.72.672-.144.256-.216.528-.216.816 0 .528.16.912.48 1.152.32.24.728.36 1.224.36zM13.167 24V12.216h2.28l.192 1.584h.096c.528-.512 1.096-.952 1.704-1.32.624-.368 1.344-.552 2.16-.552 1.264 0 2.184.408 2.76 1.224.576.8.864 1.952.864 3.456V24h-2.76v-7.032c0-.976-.144-1.664-.432-2.064-.288-.4-.76-.6-1.416-.6-.512 0-.968.128-1.368.384-.384.24-.824.6-1.32 1.08V24h-2.76zm16.622.288c-.688 0-1.272-.104-1.752-.312-.464-.208-.848-.496-1.152-.864-.288-.384-.504-.832-.648-1.344-.128-.528-.192-1.112-.192-1.752V14.4h-1.68v-2.064l1.824-.12L26.525 9h2.304v3.216h3V14.4h-3v5.616c0 1.376.552 2.064 1.656 2.064.208 0 .416-.024.624-.072.224-.048.424-.112.6-.192l.48 2.04c-.32.112-.688.208-1.104.288-.4.096-.832.144-1.296.144zm5.9 0c-1.04 0-1.88-.312-2.52-.936-.64-.64-.96-1.48-.96-2.52 0-.624.128-1.176.384-1.656.272-.496.688-.92 1.248-1.272.576-.352 1.296-.648 2.16-.888.88-.24 1.928-.424 3.144-.552-.016-.304-.064-.592-.144-.864-.064-.288-.184-.536-.36-.744-.16-.224-.376-.392-.648-.504-.272-.128-.608-.192-1.008-.192-.576 0-1.144.112-1.704.336-.544.224-1.08.496-1.608.816l-1.008-1.848c.656-.416 1.392-.776 2.208-1.08.816-.304 1.696-.456 2.64-.456 1.472 0 2.568.44 3.288 1.32.736.864 1.104 2.12 1.104 3.768V24h-2.28l-.192-1.296h-.096c-.528.448-1.096.824-1.704 1.128-.592.304-1.24.456-1.944.456zm.888-2.16c.48 0 .912-.112 1.296-.336.4-.224.824-.544 1.272-.96v-2.64c-.8.096-1.472.224-2.016.384s-.984.344-1.32.552c-.336.192-.576.416-.72.672-.144.256-.216.528-.216.816 0 .528.16.912.48 1.152.32.24.728.36 1.224.36zM44.247 24V12.216h2.28l.193 2.088h.096c.416-.768.92-1.352 1.512-1.752.592-.416 1.2-.624 1.824-.624.56 0 1.008.08 1.344.24l-.48 2.4c-.208-.064-.4-.112-.576-.144-.176-.032-.392-.048-.648-.048-.464 0-.952.184-1.464.552-.512.352-.952.976-1.32 1.872V24h-2.76zm10.217.288c-1.04 0-1.88-.312-2.52-.936-.64-.64-.96-1.48-.96-2.52 0-.624.128-1.176.384-1.656.272-.496.688-.92 1.248-1.272.576-.352 1.296-.648 2.16-.888.88-.24 1.928-.424 3.144-.552-.016-.304-.064-.592-.144-.864-.064-.288-.184-.536-.36-.744-.16-.224-.376-.392-.648-.504-.272-.128-.608-.192-1.008-.192-.576 0-1.144.112-1.704.336-.544.224-1.08.496-1.608.816l-1.008-1.848c.656-.416 1.392-.776 2.208-1.08.816-.304 1.696-.456 2.64-.456 1.472 0 2.568.44 3.288 1.32.736.864 1.104 2.12 1.104 3.768V24H58.4l-.192-1.296h-.096c-.528.448-1.096.824-1.704 1.128-.592.304-1.24.456-1.944.456zm.888-2.16c.48 0 .912-.112 1.296-.336.4-.224.824-.544 1.272-.96v-2.64c-.8.096-1.472.224-2.016.384s-.984.344-1.32.552c-.336.192-.576.416-.72.672-.144.256-.216.528-.216.816 0 .528.16.912.48 1.152.32.24.728.36 1.224.36z"/>
</svg>
