<svg xmlns="http://www.w3.org/2000/svg" width="25" height="24" fill="none" viewBox="0 0 25 24">
    <path fill="#fff" fill-rule="evenodd" d="M18.002 4c0 1.105.895 2 2 2s2-.895 2-2-.895-2-2-2-2 .895-2 2zm2 10c-1.105 0-2-.895-2-2s.895-2 2-2 2 .895 2 2-.895 2-2 2zm0 8c-1.105 0-2-.895-2-2s.895-2 2-2 2 .895 2 2-.895 2-2 2zm-8 0c-1.105 0-2-.895-2-2s.895-2 2-2c1.104 0 2 .895 2 2s-.896 2-2 2zm-2-10c0 1.105.895 2 2 2 1.104 0 2-.895 2-2s-.896-2-2-2c-1.105 0-2 .895-2 2zm2-6c-1.105 0-2-.895-2-2s.895-2 2-2c1.104 0 2 .895 2 2s-.896 2-2 2zm-10 14c0 1.105.895 2 2 2s2-.895 2-2-.895-2-2-2-2 .895-2 2zm2-6c-1.105 0-2-.895-2-2s.895-2 2-2 2 .895 2 2-.895 2-2 2zm-2-10c0 1.105.895 2 2 2s2-.895 2-2-.895-2-2-2-2 .895-2 2z" clip-rule="evenodd"/>
</svg>
