<svg width="40" height="24" viewBox="0 0 40 24" fill="none" xmlns="http://www.w3.org/2000/svg">
<path fill-rule="evenodd" clip-rule="evenodd" d="M20.6666 11.3333C19.4241 11.3333 18.38 10.4835 18.084 9.33333H13.3333V8H18.084C18.38 6.84985 19.4241 6 20.6666 6C22.1394 6 23.3333 7.19391 23.3333 8.66667C23.3333 10.1394 22.1394 11.3333 20.6666 11.3333ZM24.6666 8H26.6666V9.33333H24.6666V8ZM17.3333 18C16.0908 18 15.0467 17.1502 14.7507 16H13.3333V14.6667H14.7507C15.0467 13.5165 16.0908 12.6667 17.3333 12.6667C18.8061 12.6667 20 13.8606 20 15.3333C20 16.8061 18.8061 18 17.3333 18ZM21.3333 16H26.6666V14.6667H21.3333V16ZM18.6666 15.3333C18.6666 16.0697 18.0697 16.6667 17.3333 16.6667C16.5969 16.6667 16 16.0697 16 15.3333C16 14.597 16.5969 14 17.3333 14C18.0697 14 18.6666 14.597 18.6666 15.3333ZM22 8.66667C22 9.40305 21.403 10 20.6666 10C19.9303 10 19.3333 9.40305 19.3333 8.66667C19.3333 7.93029 19.9303 7.33333 20.6666 7.33333C21.403 7.33333 22 7.93029 22 8.66667Z" fill="#608EB6"/>
</svg>
