<svg width="40" height="24" viewBox="0 0 40 24" fill="none" xmlns="http://www.w3.org/2000/svg">
<path fill-rule="evenodd" clip-rule="evenodd" d="M18 6.66675H26C26.7364 6.66675 27.3334 7.2637 27.3334 8.00008V16.6667C27.3334 17.4031 26.7364 18.0001 26 18.0001L18 18.0001H16.6667L14 18.0001C13.2636 18.0001 12.6667 17.4031 12.6667 16.6667V8.00008C12.6667 7.2637 13.2636 6.66675 14 6.66675H16.6667H18ZM16.6667 8.00008H14V10.0001H16.6667V8.00008ZM18 10.0001V8.00008H26V10.0001H18ZM16.6667 11.3334H14V13.3334H16.6667V11.3334ZM18 13.3334V11.3334H26V13.3334H18ZM16.6667 14.6667H14V16.6667H16.6667V14.6667ZM18 16.6667V14.6667H26V16.6667H18Z" fill="#608EB6"/>
</svg>
