<svg xmlns="http://www.w3.org/2000/svg" width="24" height="24" fill="none" viewBox="0 0 24 24">
    <path fill-rule="evenodd" d="M12 23C5.925 23 1 18.075 1 12S5.925 1 12 1s11 4.925 11 11-4.925 11-11 11zm7.4-5.875C20.409 15.67 21 13.905 21 12c0-4.97-4.03-9-9-9s-9 4.03-9 9c0 1.904.591 3.67 1.6 5.125C5.726 15.638 8.37 15 12 15c3.63 0 6.274.638 7.4 2.125zm-1.435 1.615C17.672 17.687 15.569 17 12 17c-3.57 0-5.672.687-5.965 1.74C7.623 20.146 9.712 21 12 21s4.377-.854 5.965-2.26zM12 15c-2.24 0-4-1.573-4-5 0-2.244 1.58-4 4-4 2.414 0 4 1.922 4 4.2 0 3.28-1.782 4.8-4 4.8zm-2-5c0 2.27.818 3 2 3 1.178 0 2-.702 2-2.8 0-1.25-.784-2.2-2-2.2-1.266 0-2 .816-2 2z" clip-rule="evenodd"/>
</svg>
