<svg width="160" height="48" viewBox="0 0 228 48" fill="none"
  xmlns="http://www.w3.org/2000/svg">
  <path fill-rule="evenodd" clip-rule="evenodd" d="M38.9955 23.4662H39V37.8088L34.3765 34.5944C31.6821 37.1586 28.0263 38.7341 24 38.7341C15.7157 38.7341 9 32.0642 9 23.8364C9 15.6086 15.7157 8.93864 24 8.93864C32.1597 8.93864 38.7977 15.4095 38.9955 23.4662ZM24 34.1075C29.7115 34.1075 34.3416 29.5089 34.3416 23.8364C34.3416 18.1638 29.7115 13.5653 24 13.5653C18.2885 13.5653 13.6584 18.1638 13.6584 23.8364C13.6584 29.5089 18.2885 34.1075 24 34.1075Z" fill="#FF9800"/>
  <path d="M143.652 35.1586V9.7014H146.604V16.6378L146.496 20.2132C147.336 19.4266 148.212 18.7592 149.124 18.211C150.06 17.6389 151.128 17.3529 152.328 17.3529C154.176 17.3529 155.52 17.9369 156.36 19.1048C157.224 20.249 157.656 21.9295 157.656 24.1462V35.1586H154.704V24.5395C154.704 22.9187 154.44 21.7388 153.912 20.9998C153.384 20.2609 152.544 19.8914 151.392 19.8914C150.504 19.8914 149.7 20.1179 148.98 20.5708C148.284 21.0237 147.492 21.6911 146.604 22.573V35.1586H143.652Z" fill="#121212"/>
  <path d="M168.526 35.5877C166.966 35.5877 165.55 35.2301 164.278 34.5151C163.006 33.7761 161.998 32.7273 161.254 31.3687C160.51 30.01 160.138 28.3891 160.138 26.506C160.138 24.5991 160.51 22.9663 161.254 21.6077C162.022 20.249 163.006 19.2002 164.206 18.4613C165.406 17.7223 166.666 17.3529 167.986 17.3529C170.218 17.3529 171.934 18.0918 173.134 19.5697C174.358 21.0475 174.97 23.0259 174.97 25.5049C174.97 25.8148 174.958 26.1247 174.934 26.4345C174.934 26.7206 174.91 26.9708 174.862 27.1854H163.054C163.174 29.0208 163.75 30.4867 164.782 31.5832C165.838 32.6797 167.206 33.2279 168.886 33.2279C169.726 33.2279 170.494 33.1087 171.19 32.8703C171.91 32.6081 172.594 32.2744 173.242 31.8692L174.286 33.8C173.542 34.2767 172.69 34.6938 171.73 35.0514C170.794 35.4089 169.726 35.5877 168.526 35.5877ZM163.018 25.0759H172.378C172.378 23.312 171.994 21.9771 171.226 21.0713C170.482 20.1417 169.426 19.6769 168.058 19.6769C166.834 19.6769 165.73 20.1536 164.746 21.1071C163.786 22.0367 163.21 23.3596 163.018 25.0759Z" fill="#121212"/>
  <path d="M181.033 35.5877C179.569 35.5877 178.345 35.1586 177.361 34.3005C176.401 33.4186 175.921 32.2029 175.921 30.6536C175.921 28.7467 176.773 27.2926 178.477 26.2915C180.205 25.2665 182.929 24.5515 186.649 24.1462C186.649 23.4073 186.541 22.7041 186.325 22.0367C186.133 21.3693 185.773 20.833 185.245 20.4278C184.741 19.9987 184.009 19.7842 183.049 19.7842C182.041 19.7842 181.093 19.9749 180.205 20.3563C179.317 20.7376 178.525 21.1667 177.829 21.6434L176.677 19.6054C177.493 19.081 178.489 18.5804 179.665 18.1037C180.865 17.6032 182.161 17.3529 183.553 17.3529C185.689 17.3529 187.237 18.0084 188.197 19.3194C189.157 20.6065 189.637 22.3347 189.637 24.5038V35.1586H187.189L186.937 33.0849H186.829C186.013 33.7523 185.113 34.3363 184.129 34.8368C183.169 35.3374 182.137 35.5877 181.033 35.5877ZM181.897 33.2279C182.737 33.2279 183.529 33.0253 184.273 32.6201C185.017 32.2148 185.809 31.6428 186.649 30.9038V26.077C183.745 26.4345 181.705 26.9708 180.529 27.6859C179.377 28.401 178.801 29.3187 178.801 30.439C178.801 31.4163 179.101 32.1314 179.701 32.5843C180.301 33.0134 181.033 33.2279 181.897 33.2279Z" fill="#121212"/>
  <path d="M196.474 35.5877C195.37 35.5877 194.566 35.254 194.062 34.5866C193.582 33.8953 193.342 32.918 193.342 31.6547V9.7014H196.294V31.8692C196.294 32.3221 196.378 32.6558 196.546 32.8703C196.714 33.061 196.906 33.1564 197.122 33.1564C197.218 33.1564 197.302 33.1564 197.374 33.1564C197.47 33.1325 197.602 33.1087 197.77 33.0849L198.166 35.3017C197.974 35.397 197.746 35.4685 197.482 35.5162C197.218 35.5639 196.882 35.5877 196.474 35.5877Z" fill="#121212"/>
  <path d="M206.226 35.5877C204.354 35.5877 203.046 35.0514 202.302 33.9787C201.582 32.9061 201.222 31.5117 201.222 29.7955V20.1775H198.63V17.9607L201.366 17.7819L201.726 12.9193H204.21V17.7819H208.926V20.1775H204.21V29.8312C204.21 30.9038 204.402 31.7381 204.786 32.334C205.194 32.9061 205.902 33.1921 206.91 33.1921C207.222 33.1921 207.558 33.1445 207.918 33.0491C208.278 32.9299 208.602 32.8227 208.89 32.7273L209.466 34.9441C208.986 35.111 208.458 35.254 207.882 35.3732C207.33 35.5162 206.778 35.5877 206.226 35.5877Z" fill="#121212"/>
  <path d="M211.082 35.1586V9.7014H214.034V16.6378L213.926 20.2132C214.766 19.4266 215.642 18.7592 216.554 18.211C217.49 17.6389 218.558 17.3529 219.758 17.3529C221.606 17.3529 222.95 17.9369 223.79 19.1048C224.654 20.249 225.086 21.9295 225.086 24.1462V35.1586H222.134V24.5395C222.134 22.9187 221.87 21.7388 221.342 20.9998C220.814 20.2609 219.974 19.8914 218.822 19.8914C217.934 19.8914 217.13 20.1179 216.41 20.5708C215.714 21.0237 214.922 21.6911 214.034 22.573V35.1586H211.082Z" fill="#121212"/>
  <path d="M49.872 30.439C49.872 28.556 50.7 27.1019 52.356 26.077C54.012 25.052 56.652 24.3369 60.276 23.9317C60.276 23.4788 60.216 23.0498 60.096 22.6445C59.976 22.2155 59.784 21.846 59.52 21.5362C59.28 21.2024 58.956 20.9522 58.548 20.7853C58.164 20.5946 57.672 20.4993 57.072 20.4993C56.184 20.4993 55.32 20.6661 54.48 20.9998C53.664 21.3335 52.872 21.7388 52.104 22.2155L50.592 19.4624C51.576 18.8426 52.668 18.3063 53.868 17.8534C55.092 17.4005 56.412 17.1741 57.828 17.1741C60.06 17.1741 61.716 17.8296 62.796 19.1406C63.876 20.4278 64.416 22.2989 64.416 24.7541V35.1586H61.032L60.708 33.2279H60.6C59.808 33.8953 58.956 34.4555 58.044 34.9084C57.156 35.3612 56.184 35.5877 55.128 35.5877C53.568 35.5877 52.296 35.1229 51.312 34.1933C50.352 33.2398 49.872 31.9884 49.872 30.439ZM53.904 30.1172C53.904 30.9038 54.132 31.4759 54.588 31.8335C55.068 32.191 55.68 32.3698 56.424 32.3698C57.144 32.3698 57.804 32.2029 58.404 31.8692C59.004 31.5355 59.628 31.0588 60.276 30.439V26.506C59.076 26.6491 58.068 26.8397 57.252 27.0781C56.436 27.3165 55.776 27.5906 55.272 27.9005C54.792 28.1865 54.444 28.5202 54.228 28.9016C54.012 29.283 53.904 29.6882 53.904 30.1172Z" fill="#121212"/>
  <path d="M67.6717 17.6032H71.0917L71.3797 19.963H71.5238C72.3158 19.2002 73.1677 18.5447 74.0797 17.9965C75.0157 17.4482 76.0957 17.1741 77.3197 17.1741C79.2158 17.1741 80.5957 17.7819 81.4597 18.9976C82.3238 20.1894 82.7557 21.9056 82.7557 24.1462V35.1586H78.6157V24.6826C78.6157 23.2285 78.3997 22.2036 77.9678 21.6077C77.5358 21.0118 76.8277 20.7138 75.8437 20.7138C75.0757 20.7138 74.3918 20.9045 73.7917 21.2859C73.2158 21.6434 72.5557 22.1797 71.8117 22.8948V35.1586H67.6717V17.6032Z" fill="#121212"/>
  <path d="M86.6283 20.8568H84.1083V17.7819L86.8443 17.6032L87.3483 12.812H90.8043V17.6032H95.3043V20.8568H90.8043V29.2234C90.8043 31.2733 91.6323 32.2983 93.2883 32.2983C93.6003 32.2983 93.9123 32.2625 94.2243 32.191C94.5603 32.1195 94.8603 32.0242 95.1243 31.905L95.8443 34.9441C95.3643 35.111 94.8123 35.254 94.1883 35.3732C93.5883 35.5162 92.9403 35.5877 92.2443 35.5877C91.2123 35.5877 90.3363 35.4328 89.6163 35.1229C88.9203 34.813 88.3443 34.384 87.8883 33.8357C87.4563 33.2636 87.1323 32.5962 86.9163 31.8335C86.7243 31.0469 86.6283 30.1768 86.6283 29.2234V20.8568Z" fill="#121212"/>
  <path d="M95.9407 30.439C95.9407 28.556 96.7687 27.1019 98.4247 26.077C100.081 25.052 102.721 24.3369 106.345 23.9317C106.345 23.4788 106.285 23.0498 106.165 22.6445C106.045 22.2155 105.853 21.846 105.589 21.5362C105.349 21.2024 105.025 20.9522 104.617 20.7853C104.233 20.5946 103.741 20.4993 103.141 20.4993C102.253 20.4993 101.389 20.6661 100.549 20.9998C99.7327 21.3335 98.9408 21.7388 98.1727 22.2155L96.6608 19.4624C97.6448 18.8426 98.7367 18.3063 99.9367 17.8534C101.161 17.4005 102.481 17.1741 103.897 17.1741C106.129 17.1741 107.785 17.8296 108.865 19.1406C109.945 20.4278 110.485 22.2989 110.485 24.7541V35.1586H107.101L106.777 33.2279H106.669C105.877 33.8953 105.025 34.4555 104.113 34.9084C103.225 35.3612 102.253 35.5877 101.197 35.5877C99.6367 35.5877 98.3648 35.1229 97.3808 34.1933C96.4208 33.2398 95.9407 31.9884 95.9407 30.439ZM99.9727 30.1172C99.9727 30.9038 100.201 31.4759 100.657 31.8335C101.137 32.191 101.749 32.3698 102.493 32.3698C103.213 32.3698 103.873 32.2029 104.473 31.8692C105.073 31.5355 105.697 31.0588 106.345 30.439V26.506C105.145 26.6491 104.137 26.8397 103.321 27.0781C102.505 27.3165 101.845 27.5906 101.341 27.9005C100.861 28.1865 100.513 28.5202 100.297 28.9016C100.081 29.283 99.9727 29.6882 99.9727 30.1172Z" fill="#121212"/>
  <path d="M113.741 17.6032H117.16L117.448 20.7138H117.592C118.216 19.5697 118.972 18.6996 119.86 18.1037C120.748 17.484 121.66 17.1741 122.596 17.1741C123.437 17.1741 124.108 17.2933 124.612 17.5316L123.893 21.1071C123.581 21.0118 123.292 20.9402 123.028 20.8926C122.764 20.8449 122.441 20.8211 122.057 20.8211C121.361 20.8211 120.628 21.0952 119.86 21.6434C119.092 22.1678 118.432 23.0974 117.88 24.4323V35.1586H113.741V17.6032Z" fill="#121212"/>
  <path d="M123.63 30.439C123.63 28.556 124.458 27.1019 126.114 26.077C127.77 25.052 130.41 24.3369 134.034 23.9317C134.034 23.4788 133.974 23.0498 133.854 22.6445C133.734 22.2155 133.542 21.846 133.278 21.5362C133.038 21.2024 132.714 20.9522 132.306 20.7853C131.922 20.5946 131.43 20.4993 130.83 20.4993C129.942 20.4993 129.078 20.6661 128.238 20.9998C127.422 21.3335 126.63 21.7388 125.862 22.2155L124.35 19.4624C125.334 18.8426 126.426 18.3063 127.626 17.8534C128.85 17.4005 130.17 17.1741 131.586 17.1741C133.818 17.1741 135.474 17.8296 136.554 19.1406C137.634 20.4278 138.174 22.2989 138.174 24.7541V35.1586H134.79L134.466 33.2279H134.358C133.566 33.8953 132.714 34.4555 131.802 34.9084C130.914 35.3612 129.942 35.5877 128.886 35.5877C127.326 35.5877 126.054 35.1229 125.07 34.1933C124.11 33.2398 123.63 31.9884 123.63 30.439ZM127.662 30.1172C127.662 30.9038 127.89 31.4759 128.346 31.8335C128.826 32.191 129.438 32.3698 130.182 32.3698C130.902 32.3698 131.562 32.2029 132.162 31.8692C132.762 31.5355 133.386 31.0588 134.034 30.439V26.506C132.834 26.6491 131.826 26.8397 131.01 27.0781C130.194 27.3165 129.534 27.5906 129.03 27.9005C128.55 28.1865 128.202 28.5202 127.986 28.9016C127.77 29.283 127.662 29.6882 127.662 30.1172Z" fill="#121212"/>
</svg>
