<?xml version="1.0" standalone="no"?>
<!DOCTYPE svg PUBLIC "-//W3C//DTD SVG 20010904//EN"
 "http://www.w3.org/TR/2001/REC-SVG-20010904/DTD/svg10.dtd">
<svg version="1.0" xmlns="http://www.w3.org/2000/svg"
 width="700.000000pt" height="700.000000pt" viewBox="0 0 700.000000 700.000000"
 preserveAspectRatio="xMidYMid meet">
<metadata>
Created by potrace 1.14, written by Peter Selinger 2001-2017
</metadata>
<g transform="translate(0.000000,700.000000) scale(0.100000,-0.100000)"
fill="#000000" stroke="none">
<path d="M3278 6996 c-1 -2 -42 -6 -89 -10 -47 -4 -95 -8 -105 -10 -10 -2 -48
-7 -84 -12 -36 -4 -67 -8 -70 -9 -3 -1 -25 -5 -50 -9 -25 -4 -101 -21 -170
-38 -69 -16 -134 -31 -146 -34 -39 -7 -228 -72 -345 -117 -132 -51 -373 -168
-469 -227 -36 -22 -72 -43 -80 -46 -8 -4 -64 -41 -125 -82 -464 -315 -838
-723 -1107 -1207 -49 -87 -148 -289 -148 -301 0 -2 -9 -23 -20 -47 -57 -123
-157 -435 -186 -582 -2 -11 -10 -54 -19 -95 -29 -147 -35 -194 -52 -370 -15
-163 -8 -592 12 -711 2 -13 6 -46 9 -74 9 -78 23 -156 51 -285 54 -251 162
-550 288 -800 61 -122 169 -312 187 -330 3 -3 31 -43 62 -90 170 -255 431
-534 708 -755 92 -74 370 -265 386 -265 4 0 15 -6 23 -14 48 -41 400 -206 578
-271 214 -77 472 -141 692 -171 25 -3 57 -8 71 -10 163 -25 682 -25 842 1 13
2 46 7 73 10 71 10 87 13 115 18 14 3 43 8 65 12 179 32 407 100 627 186 126
50 413 190 468 229 15 11 33 20 39 20 6 0 11 5 11 10 0 6 5 10 10 10 16 0 222
143 335 231 98 77 140 113 219 187 27 25 42 33 51 26 33 -23 372 -261 391
-274 12 -8 57 -40 100 -71 44 -30 124 -87 179 -125 55 -39 123 -86 150 -105
28 -19 94 -66 148 -103 l97 -68 -1 1739 c-1 956 -5 1774 -9 1818 -14 140 -21
203 -25 226 -3 13 -7 41 -10 64 -18 129 -81 383 -136 547 -350 1043 -1171
1860 -2221 2212 -156 52 -409 114 -538 131 -19 3 -46 7 -60 10 -13 2 -52 7
-86 11 -33 3 -74 8 -90 10 -32 5 -540 14 -546 10z m407 -1091 c77 -5 182 -19
300 -40 17 -3 80 -19 140 -35 306 -81 587 -221 860 -429 141 -107 330 -299
437 -443 22 -29 46 -61 54 -71 48 -59 178 -294 248 -449 73 -163 148 -447 171
-648 4 -30 8 -68 10 -85 7 -49 6 -356 0 -415 -52 -490 -215 -901 -503 -1273
-77 -98 -208 -239 -302 -322 -285 -253 -636 -440 -1005 -534 -304 -77 -666
-94 -960 -46 -16 3 -46 8 -65 11 -58 9 -279 64 -318 79 -20 7 -75 28 -122 45
-228 85 -519 260 -710 426 -390 341 -675 820 -776 1304 -26 123 -29 141 -39
235 -4 33 -9 74 -11 90 -6 39 -5 363 0 395 3 14 7 52 10 85 3 33 8 71 11 85 2
13 7 42 10 65 9 59 71 289 100 369 78 215 207 462 314 601 17 22 45 60 63 84
97 129 240 271 429 426 81 67 292 196 429 262 207 99 499 189 683 209 29 3 58
7 65 9 7 3 68 8 135 11 67 4 123 7 124 8 3 3 118 -2 218 -9z"/>
</g>
</svg>
